<?xml version="1.0" encoding="utf-8"?>
<!-- Generator: Adobe Illustrator 15.0.0, SVG Export Plug-In . SVG Version: 6.00 Build 0)  -->
<!DOCTYPE svg PUBLIC "-//W3C//DTD SVG 1.1//EN" "http://www.w3.org/Graphics/SVG/1.1/DTD/svg11.dtd">
<svg version="1.1" id="图层_1" xmlns="http://www.w3.org/2000/svg" xmlns:xlink="http://www.w3.org/1999/xlink" x="0px" y="0px"
	 width="328px" height="328px" viewBox="0 0 328 328" enable-background="new 0 0 328 328" xml:space="preserve">
<path fill-rule="evenodd" clip-rule="evenodd" d="M156.986,307.524c-0.074,2.36-0.15,4.723-0.229,7.089
	c-0.093,2.702-0.165,5.404-0.3,8.103c-0.057,1.181-0.223,2.353-0.361,3.521c-0.038,0.315-0.391,0.632-0.705,0.622
	c-1.601-0.032-3.202-0.045-4.804-0.145c-1.261-0.075-2.517-0.262-3.774-0.391c-2.941-0.291-5.867-0.707-8.775-1.213
	c-1.335-0.233-2.7-0.22-3.99-0.691c-7.414-1.266-14.658-3.205-21.786-5.59c-14.004-4.688-27.131-11.169-39.361-19.452
	c-11.101-7.518-21.16-16.23-30.113-26.233c-8.833-9.861-16.395-20.601-22.623-32.282c-5.373-10.084-9.657-20.607-12.787-31.607
	c-1.18-4.139-2.173-8.317-3.08-12.524c-0.355-1.64-0.632-3.309-0.912-4.974c-0.309-1.828-0.51-3.675-0.833-5.501
	c-0.22-1.245-0.299-2.518-0.472-3.767c-0.472-3.354-0.525-6.733-0.78-10.101c-0.28-3.799-0.353-7.595-0.268-11.395
	c0.021-1.097,0.107-2.195,0.176-3.289c0.041-0.675,0.136-1.346,0.142-2.021c0.025-3.554,0.405-7.082,0.805-10.604
	c0.29-2.512,0.74-5.007,1.107-7.512c0.217-1.501,0.44-3.002,0.777-4.483c0.167-0.739,0.343-1.478,0.443-2.23
	c0.217-1.63,0.925-3.05,1.752-4.435c4.244-7.124,8.906-13.954,14.25-20.3c4.69-5.574,9.817-10.707,15.59-15.167
	c2.343-1.808,4.788-3.463,7.33-4.984c0.588-0.353,1.088-0.336,1.639,0.045c1.384,0.962,2.812,1.866,4.171,2.863
	c6.276,4.606,12.208,9.616,17.845,14.977c6.559,6.236,12.793,12.777,18.673,19.651c5.872,6.876,11.416,14.009,16.649,21.385
	c9.938,14.002,18.723,28.699,26.546,43.98c4.587,8.954,8.631,18.127,12.095,27.568c2.586,7.053,4.791,14.229,6.76,21.473
	c0.949,3.5,1.784,7.03,2.579,10.568c0.743,3.293,1.416,6.602,2.013,9.922c0.586,3.234,1.054,6.494,1.548,9.745
	c0.368,2.421,0.728,4.842,1.02,7.27c0.286,2.351,0.503,4.703,0.714,7.06c0.251,2.688,0.481,5.384,0.68,8.075
	c0.113,1.604,0.142,3.209,0.207,4.816c0.113,2.611,0.239,5.229,0.321,7.845c0.044,1.437,0.007,2.872,0.007,4.309
	C156.908,307.521,156.949,307.521,156.986,307.524"/>
<path fill-rule="evenodd" clip-rule="evenodd" fill="#9FA0A0" d="M42.392,72.76c-1.544,1.482-3.058,2.951-4.593,4.397
	c-0.368,0.342-0.789,0.635-1.217,0.904c-6.552,4.096-12.431,9.012-17.794,14.561c-0.233,0.246-0.479,0.484-0.749,0.678
	c-0.11,0.08-0.346,0.093-0.456,0.029c-0.117-0.068-0.199-0.265-0.211-0.417c-0.016-0.151,0.041-0.332,0.113-0.474
	c3.167-6.063,6.448-12.057,10.249-17.751c1.831-2.74,3.718-5.432,5.675-8.085c2.308-3.128,4.756-6.143,7.31-9.071
	c3.161-3.628,6.467-7.133,9.924-10.483c4.067-3.941,8.308-7.689,12.78-11.162c7.82-6.068,16.09-11.456,24.866-16.052
	c10.733-5.617,21.96-9.978,33.67-13.07c5.307-1.397,10.674-2.515,16.104-3.36c3.34-0.52,6.687-0.971,10.049-1.265
	c3.529-0.313,7.069-0.649,10.621-0.649c2.871,0,5.746-0.025,8.615-0.009c4.57,0.029,9.109,0.406,13.648,0.865
	c4.709,0.477,9.378,1.2,14.022,2.091c9.894,1.895,19.514,4.732,28.874,8.441c44.335,17.547,79.483,54.387,94.574,100.349
	c2.639,8.034,4.629,16.223,6.02,24.568c1.639,9.864,2.239,19.793,2.089,29.783c-0.072,4.648-0.283,9.291-0.78,13.912
	c-0.915,8.577-2.438,17.044-4.688,25.378c-5.479,20.294-14.503,38.864-27.155,55.659c-9.156,12.155-19.811,22.812-31.946,31.991
	c-4.386,3.318-8.925,6.403-13.617,9.261c-0.426,0.255-0.831,0.568-1.479,0.439c-0.157-0.514-0.358-1.065-0.49-1.638
	c-2.385-10.639-5.527-21.059-9.01-31.382c-3.859-11.447-8.213-22.701-13.095-33.75c-0.271-0.617-0.548-1.232-0.786-1.865
	c-0.082-0.213-0.038-0.473-0.054-0.717c0.846-0.504,1.749-0.71,2.636-0.961c4.219-1.192,8.428-2.428,12.566-3.867
	c7.598-2.641,14.876-5.97,21.736-10.179c6.876-4.222,13.13-9.216,18.497-15.265c2.535-2.854,4.722-5.942,6.555-9.293
	c1.579-2.89,2.313-5.969,2.385-9.222c0.126-5.659,0.113-11.317-0.201-16.974c-0.104-1.855-0.177-3.715-0.218-5.57
	c-0.06-2.789-0.06-5.575-0.449-8.345c-0.057-0.416-0.082-0.842-0.084-1.265c-0.032-2.705-0.36-5.391-0.563-8.086
	c-0.435-5.636-2.073-10.913-4.486-15.981c-0.616-1.293-1.283-2.566-1.984-3.818c-0.387-0.702-0.558-1.402-0.412-2.183
	c0.021-0.084,0.021-0.171,0.034-0.254c0.575-3.332,0.72-6.711,1.113-10.065c0.133-1.171,0.174-2.359,0.183-3.541
	c0.031-2.701,0.028-5.41,0.01-8.111c-0.01-1.521-0.069-3.038-0.359-4.542c-0.128-0.659-0.179-1.343-0.2-2.014
	c-0.041-1.366-0.422-2.667-0.784-3.967c-0.268-0.981-0.751-1.879-1.329-2.715c-0.821-1.185-1.75-2.278-2.747-3.312
	c-2.646-2.744-5.565-5.178-8.49-7.605c-0.261-0.216-0.516-0.439-0.806-0.62c-1.085-0.7-1.525-1.678-1.568-2.976
	c-0.124-3.906-0.929-7.705-2.134-11.407c-1.321-4.042-3.259-7.767-5.961-11.088c-3.447-4.235-7.785-7.205-12.846-9.128
	c-1.416-0.542-2.876-1.081-4.36-1.294c-2.334-0.33-4.665-0.833-7.047-0.662c-0.676,0.045-1.346,0.116-2.017,0.197
	c-0.418,0.052-0.83,0.171-1.251,0.204c-3.926,0.319-7.562,1.63-11.111,3.231c-1.846,0.833-3.648,1.766-5.334,2.896
	c-0.756,0.51-1.497,0.639-2.384,0.339c-3.996-1.362-8.053-2.488-12.143-3.505c-2.29-0.568-4.58-1.12-6.904-1.527
	c-1.829-0.322-3.637-0.742-5.458-1.107c-0.493-0.1-0.997-0.152-1.498-0.229c-0.664-0.104-1.331-0.214-1.994-0.323
	c-0.251-0.042-0.491-0.129-0.742-0.162c-2.178-0.271-4.354-0.539-6.533-0.797c-1.595-0.191-3.189-0.381-4.784-0.536
	c-0.922-0.094-1.854-0.123-2.782-0.177c-2.188-0.126-4.381-0.265-6.573-0.371c-1.604-0.074-3.208-0.148-4.813-0.152
	c-2.702,0-5.41-0.052-8.106,0.123c-3.456,0.232-6.917,0.333-10.374,0.475c-1.515,0.062-3.025,0.31-4.539,0.455
	c-1.599,0.155-3.2,0.268-4.794,0.429c-0.717,0.071-1.321-0.083-1.883-0.545c-1.626-1.343-3.351-2.557-5.128-3.706
	c-4.287-2.763-8.889-4.819-13.771-6.258c-2.344-0.694-4.776-1.046-7.169-1.53c-0.249-0.052-0.506-0.055-0.758-0.062
	c-2.278-0.055-4.562-0.138-6.842-0.148c-6.501-0.013-12.683,1.546-18.709,3.861c-4.687,1.801-9.003,4.271-12.919,7.372
	c-5.087,4.025-9.223,8.893-12.319,14.629c-1.849,3.425-3.306,7.018-4.347,10.756c-0.428,1.536-0.869,3.079-1.051,4.687
	C42.996,70.236,42.671,71.381,42.392,72.76"/>
<path fill-rule="evenodd" clip-rule="evenodd" d="M170.607,243.096c4.64-0.287,8.854-0.545,13.069-0.807
	c2.483-0.507,5.052-0.352,7.521-0.962c2.206-0.085,4.354-0.571,6.509-0.949c1.824-0.316,3.655-0.623,5.471-0.991
	c2.399-0.483,4.799-0.926,7.172-1.535c0.399-0.104,0.842-0.114,1.254-0.088c0.224,0.017,0.528,0.143,0.636,0.316
	c0.438,0.719,0.833,1.469,1.208,2.225c2.233,4.457,4.171,9.041,6.015,13.67c4.246,10.67,7.839,21.568,11.109,32.572
	c2.1,7.037,4.036,14.119,5.855,21.229c0.037,0.164,0.097,0.323,0.138,0.491c0.331,1.346,0.167,1.556-1.05,2.16
	c-6.122,3.055-12.448,5.638-18.934,7.814c-8.01,2.685-16.176,4.767-24.496,6.258c-3.994,0.714-7.999,1.323-12.022,1.767
	c-3.523,0.387-7.055,0.748-10.613,0.732c-0.415-0.004-0.84-0.017-1.262-0.032c-0.245-0.007-0.647-0.414-0.666-0.675
	c-0.031-0.423-0.072-0.84-0.079-1.256c-0.041-2.117-0.037-4.225-0.11-6.334c-0.169-4.731-0.364-9.453-0.568-14.179
	c-0.039-1.011-0.154-2.018-0.236-3.031c-0.095-1.176-0.184-2.353-0.282-3.528c-0.117-1.346-0.236-2.691-0.36-4.035
	c-0.03-0.338-0.106-0.672-0.119-1.004c-0.095-3.05-0.585-6.053-0.943-9.066c-0.302-2.515-0.592-5.026-1.01-7.525
	c-0.264-1.577-0.44-3.172-0.689-4.753c-0.411-2.586-0.877-5.16-1.323-7.734c-0.45-2.579-0.947-5.14-1.472-7.702
	c-0.749-3.636-1.517-7.263-2.47-10.849c-0.11-0.407-0.199-0.824-0.246-1.24c-0.101-0.92-0.044-1.291,1.014-1.275
	c0.931,0.013,1.854,0.081,2.783,0.113c1.94,0.07,3.881,0.151,5.823,0.201C168.5,243.121,169.765,243.096,170.607,243.096"/>
<path fill-rule="evenodd" clip-rule="evenodd" d="M171.52,141.282c-4.743-0.013-8.742-0.991-12.634-2.448
	c-4.777-1.788-9.137-4.328-13.202-7.394c-5.706-4.306-10.582-9.429-14.834-15.152c-1.204-1.627-2.337-3.309-3.445-5.003
	c-1.068-1.627-1.928-3.367-2.416-5.264c-0.632-2.47-0.471-4.845,0.778-7.108c0.918-1.649,2.161-3.005,3.651-4.151
	c2.162-1.662,4.568-2.879,7.085-3.871c2.906-1.142,5.888-2.023,8.927-2.75c2.787-0.668,5.602-1.213,8.423-1.665
	c2.318-0.368,4.64-0.907,7.018-0.882c0.422,0.007,0.853-0.013,1.256-0.119c1.576-0.397,3.177-0.42,4.774-0.487
	c0.68-0.029,1.353-0.074,2.023-0.151c3.274-0.375,6.559-0.575,9.855-0.604c3.799-0.029,7.603-0.136,11.399-0.119
	c5.841,0.025,11.619,0.716,17.319,2.007c3.545,0.801,6.993,1.914,10.286,3.467c1.764,0.83,3.451,1.785,5.042,2.899
	c1.262,0.874,2.344,1.937,3.215,3.202c1.856,2.698,2.158,5.61,1.12,8.686c-0.633,1.869-1.715,3.483-2.995,4.952
	c-1.109,1.271-2.289,2.485-3.481,3.676c-2.215,2.218-4.658,4.158-7.15,6.05c-4.029,3.072-8.216,5.92-12.507,8.611
	c-6.08,3.81-12.3,7.373-18.707,10.59c-0.604,0.304-1.201,0.62-1.818,0.898C177.479,140.543,174.335,141.424,171.52,141.282
	 M166.908,109.978c0.846-0.036,1.697-0.003,2.528-0.129c1.75-0.269,3.505-0.575,5.185-1.127c4.888-1.61,9.764-3.263,14.64-4.923
	c0.96-0.325,1.888-0.742,2.668-1.423c0.247-0.213,0.461-0.484,0.66-0.751c0.301-0.404-0.019-1.101-0.522-1.182
	c-1.18-0.184-2.365-0.081-3.535,0.052c-2.684,0.293-5.37,0.587-8.05,0.942c-4.438,0.591-8.858,1.301-13.328,1.568
	c-3.64,0.217-6.896,1.543-9.918,3.503c-0.358,0.232-0.673,0.536-0.598,1.026c0.075,0.461,0.412,0.72,0.808,0.888
	c0.387,0.167,0.784,0.339,1.189,0.426C161.361,109.441,164.103,109.945,166.908,109.978"/>
<path fill-rule="evenodd" clip-rule="evenodd" fill="#9FA0A0" d="M167.42,232.656c-3.003-0.006-5.709,0-8.395-0.391
	c-0.998-0.145-2.021-0.125-3.033-0.15c-0.853-0.023-1.455-0.362-1.743-1.191c-0.305-0.875-0.607-1.75-0.915-2.628
	c-2.574-7.405-5.396-14.719-8.493-21.924c-1.066-2.479-2.196-4.929-3.288-7.396c-0.104-0.225-0.186-0.471-0.207-0.717
	c-0.01-0.142,0.103-0.299,0.191-0.432c0.025-0.033,0.179-0.02,0.242,0.026c0.416,0.272,0.85,0.536,1.234,0.854
	c2.262,1.898,4.517,3.809,6.775,5.721c0.391,0.324,0.773,0.651,1.161,0.977c0.337,0.285,0.732,0.411,1.165,0.428
	c0.251,0.01,0.509,0.002,0.76-0.007c4.984-0.158,9.962-0.307,14.945-0.485c1.771-0.064,3.54-0.222,5.31-0.307
	c1.86-0.09,3.717-0.16,5.575-0.205c2.022-0.053,4.046-0.127,6.064-0.366c1.419-0.17,2.863-0.184,4.297-0.213
	c1.947-0.039,3.888-0.071,5.813-0.378c0.586-0.094,1.177-0.129,1.766-0.138c4.566-0.071,9.09-0.794,13.646-1.007
	c2.741-0.518,5.561-0.352,8.294-0.956c3.801-0.235,7.527-0.984,11.277-1.598c2.828-0.462,5.627-1.085,8.437-1.653
	c2.314-0.467,4.624-0.936,6.924-1.449c5.193-1.148,10.342-2.459,15.388-4.125c3.124-1.033,6.179-2.275,8.922-4.154
	c0.987-0.672,2.076-1.123,3.214-1.462c0.916-0.274,1.844-0.284,2.763-0.103c0.393,0.08,0.782,0.299,1.115,0.537
	c0.171,0.119,0.274,0.424,0.284,0.65c0.004,0.238-0.126,0.482-0.227,0.713c-1.262,2.793-2.96,5.303-4.898,7.657
	c-3.466,4.206-7.542,7.732-11.981,10.86c-5.192,3.661-10.768,6.65-16.568,9.219c-5.865,2.603-11.924,4.701-18.077,6.502
	c-5.092,1.494-10.235,2.851-15.426,3.963c-3.866,0.833-7.745,1.647-11.658,2.303c-3.413,0.571-6.836,1.035-10.251,1.559
	c-1.001,0.154-2.017,0.2-3.021,0.346c-3.18,0.459-6.388,0.504-9.588,0.758C172.514,232.506,169.824,232.639,167.42,232.656"/>
<path fill-rule="evenodd" clip-rule="evenodd" d="M93.495,37.963c1.766,0.061,3.2,0.106,4.631,0.167
	c0.421,0.02,0.846,0.065,1.261,0.136c8.191,1.375,15.379,4.848,21.584,10.361c0.504,0.449,0.985,0.92,1.469,1.398
	c0.173,0.174,0.315,0.391,0.465,0.594c0.261,0.349,0.032,0.923-0.396,0.978c-3.593,0.458-7.128,1.216-10.686,1.904
	c-4.056,0.781-8.04,1.811-12.02,2.867c-3.743,0.987-7.433,2.182-11.101,3.457c-7.162,2.495-14.153,5.417-20.875,8.964
	c-4.633,2.447-9.084,5.181-13.341,8.238c-0.343,0.242-0.701,0.458-1.057,0.678c-0.17,0.106-0.575-0.084-0.616-0.277
	c-0.016-0.081-0.088-0.155-0.088-0.236c0.057-1.43-0.02-2.886,0.195-4.293c0.661-4.257,1.733-8.399,3.58-12.333
	c3.259-6.93,8.166-12.34,14.712-16.281c3.336-2.011,6.917-3.496,10.632-4.623c2.18-0.659,4.417-1.117,6.668-1.427
	C90.265,37.996,92.051,38.031,93.495,37.963"/>
<path fill-rule="evenodd" clip-rule="evenodd" d="M254.11,76.149c0,1.01,0.013,2.021-0.012,3.032
	c-0.004,0.245-0.107,0.49-0.173,0.732c-0.079,0.28-0.548,0.522-0.821,0.416c-0.232-0.097-0.476-0.168-0.692-0.293
	c-0.365-0.21-0.714-0.445-1.063-0.685c-8.543-5.939-17.662-10.845-27.122-15.145c-2.758-1.256-5.564-2.421-8.339-3.638
	c-0.537-0.236-1.056-0.514-1.575-0.791c-0.28-0.152-0.371-0.655-0.176-0.888c0.216-0.255,0.415-0.539,0.677-0.736
	c3.862-2.957,8.099-5.155,12.862-6.256c3.84-0.891,7.687-0.998,11.5,0.158c3.749,1.133,6.807,3.302,9.222,6.359
	c2.555,3.231,4.125,6.937,4.971,10.959c0.195,0.907,0.384,1.817,0.481,2.734c0.145,1.343,0.208,2.692,0.305,4.039
	C254.14,76.146,254.127,76.149,254.11,76.149"/>
<path fill-rule="evenodd" clip-rule="evenodd" d="M270.605,111.901c-0.037,3.293-0.358,6.563-0.697,9.833
	c-0.148,1.43-0.443,2.828-0.821,4.208c-0.066,0.242-0.186,0.471-0.293,0.695c-0.308,0.658-1.245,0.826-1.673,0.277
	c-0.358-0.462-0.683-0.956-0.985-1.462c-0.896-1.523-1.721-3.089-2.663-4.587c-3.233-5.119-7.277-9.49-12.319-12.875
	c-1.601-1.082-3.306-2.011-5.005-2.947c-1.33-0.733-2.635-1.488-3.81-2.463c-0.593-0.497-1.084-1.072-1.399-1.766
	c-0.452-0.998-0.387-1.959,0.334-2.837c0.601-0.733,1.352-1.262,2.202-1.65c1.551-0.709,3.187-1.12,4.888-1.159
	c0.573-0.013,1.183,0.084,1.728,0.268c5.266,1.801,10.396,3.925,15.345,6.475c1.044,0.539,2.048,1.162,3.051,1.775
	c0.432,0.265,0.824,0.587,1.208,0.917c0.604,0.516,0.928,1.168,0.915,1.992C270.594,108.364,270.605,110.133,270.605,111.901
	 M251.717,102.244c-0.166,0.02-0.415,0.042-0.664,0.077c-0.078,0.013-0.22,0.065-0.22,0.097c0,0.145,0,0.384,0.079,0.426
	c1.884,0.939,3.607,2.131,5.291,3.383c0.132,0.101,0.282,0.174,0.421,0.268c0.738,0.503,1.547,0.588,2.409,0.448
	c0.57-0.093,1.107-0.583,1.192-1.142c0.086-0.539-0.113-1.023-0.534-1.33c-0.469-0.342-0.979-0.674-1.522-0.852
	C256.097,102.951,253.994,102.363,251.717,102.244"/>
<path fill-rule="evenodd" clip-rule="evenodd" d="M238.477,108.189c3.521,0.145,6.525,0.471,9.353,1.743
	c1.482,0.668,2.822,1.507,3.9,2.734c1.098,1.243,1.745,2.675,1.704,4.363c-0.021,0.759-0.037,1.521-0.146,2.267
	c-0.045,0.297-0.318,0.568-0.517,0.826c-0.147,0.184-0.601,0.11-0.658-0.084c-0.093-0.316-0.21-0.632-0.253-0.955
	c-0.111-0.855-0.44-1.631-0.862-2.356c-0.252-0.433-0.579-0.833-0.94-1.175c-1.253-1.175-3.118-0.801-3.726,0.775
	c-0.305,0.78-0.452,1.62-0.662,2.434c-0.146,0.57-0.234,1.158-0.429,1.71c-0.065,0.188-0.35,0.345-0.569,0.423
	c-0.314,0.116-0.755-0.074-0.877-0.33c-0.113-0.22-0.243-0.451-0.277-0.687c-0.109-0.752-0.148-1.515-0.268-2.26
	c-0.186-1.106-0.651-2.091-1.441-2.898c-1.103-1.133-2.453-1.462-3.944-1.042c-1.241,0.349-2.009,1.22-2.202,2.512
	c-0.091,0.661-0.065,1.342-0.065,2.017c0,0.59,0.041,1.178,0.051,1.766c0.006,0.273-0.313,0.657-0.586,0.742
	c-2.388,0.73-5.152-0.281-6.411-2.356c-0.307-0.506-0.513-1.048-0.593-1.652c-0.395-3.012,0.779-5.246,3.336-6.804
	c1.171-0.717,2.447-1.149,3.788-1.359C236.427,108.344,237.69,108.27,238.477,108.189"/>
<path fill-rule="evenodd" clip-rule="evenodd" d="M234.104,131.004c4.08,0.846,8.214,1.007,12.34,0.629
	c3.102-0.284,6.156-0.968,9.058-2.188c0.389-0.165,0.786-0.311,1.188-0.42c0.127-0.035,0.375,0.043,0.42,0.137
	c0.056,0.122,0.006,0.341-0.076,0.467c-0.183,0.281-0.391,0.552-0.626,0.791c-1.951,1.982-4.341,3.195-7.027,3.78
	c-2.488,0.536-5.005,0.648-7.547,0.309c-2.683-0.357-5.331-0.855-7.863-1.817c-1.491-0.565-2.995-1.146-4.213-2.24
	c-0.044-0.042-0.044-0.174-0.019-0.242c0.032-0.067,0.136-0.161,0.183-0.149C231.314,130.368,232.708,130.688,234.104,131.004"/>
</svg>
