<?xml version="1.0" encoding="utf-8"?>
<!-- Generator: Adobe Illustrator 15.0.0, SVG Export Plug-In . SVG Version: 6.00 Build 0)  -->
<!DOCTYPE svg PUBLIC "-//W3C//DTD SVG 1.1//EN" "http://www.w3.org/Graphics/SVG/1.1/DTD/svg11.dtd">
<svg version="1.1" id="图层_1" xmlns="http://www.w3.org/2000/svg" xmlns:xlink="http://www.w3.org/1999/xlink" x="0px" y="0px"
	 width="390px" height="156px" viewBox="0 0 390 156" enable-background="new 0 0 390 156" xml:space="preserve">
<path fill="#FFFFFF" d="M390.021,93.961c-2.439,0.781-4.797,1.018-7.103,1.508c-0.573,0.121-1.174,0.111-1.76,0.164
	c-1.267,0.115-2.529,0.195-3.785,0.352c-1.771,0.22-3.541,0.152-5.313,0.097c-0.332-0.011-0.666-0.097-0.994-0.174
	c-0.451-0.109-0.715-0.423-0.813-0.867c-0.067-0.33-0.139-0.664-0.18-0.998c-0.201-1.676-0.382-3.354-0.584-5.031
	c-0.068-0.586-0.181-1.163-0.271-1.75c-0.096-0.665-0.199-1.329-0.285-2.002c-0.053-0.418-0.031-0.846-0.106-1.262
	c-0.94-4.968-1.795-9.949-3.146-14.833c-1.175-4.23-2.517-8.398-4.406-12.369c-0.215-0.453-0.479-0.887-0.76-1.297
	c-0.064-0.09-0.306-0.061-0.531-0.094c0,0.504-0.006,1.002,0.004,1.494c0.115,4.898,0.229,9.797,0.348,14.692
	c0.014,0.42,0.031,0.844,0.049,1.266c0.016,0.33,0.363,0.635,0.688,0.568c0.405-0.084,0.807-0.205,1.215-0.309
	c0.53-0.131,1.03,0.082,1.213,0.625c0.347,1.035,0.672,2.082,0.929,3.141c0.454,1.885,0.899,3.775,1.26,5.682
	c0.326,1.738,0.535,3.496,0.797,5.246c0.096,0.666,0.211,1.336,0.289,2.002c0.205,1.763,0.402,3.521,0.574,5.287
	c0.053,0.535-0.361,1.021-0.869,1.057c-0.928,0.07-1.863,0.05-2.779,0.177c-4.459,0.61-8.936,0.444-13.41,0.396
	c-0.846-0.012-1.688-0.074-2.529-0.131c-1.768-0.123-3.537-0.256-5.305-0.385c-0.334-0.027-0.672-0.049-1.006-0.09
	c-0.396-0.049-0.822-0.455-0.846-0.824c-0.033-0.506-0.063-1.01-0.051-1.516c0.106-4.813,0.225-9.625,0.329-14.438
	c0.074-3.545,0.166-7.092,0.183-10.64c0.033-8.699,0.141-17.4-0.187-26.096c-0.17-4.561-0.248-9.117-0.342-13.678
	c-0.037-1.688-0.211-3.371-0.293-5.059c-0.101-2.023-0.158-4.049-0.259-6.072c-0.077-1.518-0.184-3.033-0.284-4.549
	c-0.188-2.781-0.388-5.559-0.572-8.34c-0.012-0.164,0.019-0.348,0.091-0.492c0.069-0.145,0.198-0.33,0.334-0.355
	c0.487-0.107,0.987-0.213,1.485-0.221c3.125-0.055,6.25-0.084,9.377-0.121c0.761-0.012,1.521-0.016,2.279-0.018
	c0.747,0,1.271-0.27,1.512-1.051c0.136-0.434,0.563-0.639,1.006-0.633c2.029,0.002,4.054-0.006,6.08,0.066
	c2.363,0.084,4.722,0.258,7.082,0.363c0.763,0.033,1.317,0.273,1.483,1.072c0.125,0.602,0.533,0.818,1.087,0.836
	c1.35,0.045,2.702,0.041,4.051,0.115c1.181,0.061,2.353,0.213,3.53,0.297c1.433,0.1,2.863,0.186,4.294,0.256
	c1.1,0.053,2.194,0.045,3.268,0.357c0.537,0.154,0.886,0.518,0.896,1.07c0.021,1.182,0.037,2.365-0.004,3.549
	c-0.049,1.43-0.125,2.869-0.252,4.297c-0.239,2.777-0.399,5.559-0.573,8.338c-0.156,2.521-0.396,5.047-0.656,7.561
	c-0.396,3.859-0.888,7.713-1.324,11.568c-0.563,2.129-0.385,4.367-0.967,6.5c-0.11,0.4-0.14,0.834-0.142,1.254
	c-0.02,1.111-0.33,2.168-0.541,3.242c-0.104,0.531-0.397,0.918-0.87,1.176c-0.32,0.172-0.507,0.408-0.357,0.809
	c0.938,2.529,1.75,5.098,2.443,7.705c0.1,0.375,0.565,0.639,1.01,0.574c0.666-0.092,1.334-0.207,2.002-0.299
	c0.285-0.041,0.724,0.232,0.804,0.5c0.194,0.645,0.448,1.285,0.551,1.947c0.385,2.586,1.041,5.118,1.522,7.688
	c0.06,0.328,0.074,0.686,0.205,0.984c0.429,0.977,0.332,1.967,0.226,2.889c-0.541,0.627-1.246,0.693-1.861,0.947
	c-0.441,0.182-0.627,0.496-0.59,0.996c0.029,0.425,0.016,0.857,0.119,1.263c0.692,2.694,1.016,5.469,1.692,8.168
	c0.265,1.063,0.285,2.153,0.646,3.213C390.328,92.092,390.186,92.984,390.021,93.961 M363.848,21.122v0.033
	c-0.674,0-1.346,0-2.02-0.004c-2.873-0.008-2.547-0.074-2.533,2.619c0,0.252,0.027,0.502,0.045,0.756
	c0.033,0.459,0.34,0.842,0.76,0.844c2.437,0.008,4.877-0.002,7.313-0.014c0.258,0,0.627-0.381,0.647-0.678
	c0.066-0.92,0.133-1.842,0.183-2.764c0.016-0.322-0.302-0.66-0.615-0.67C366.371,21.196,365.109,21.163,363.848,21.122
	 M363.719,35.61v0.023c-0.42,0-0.834-0.008-1.252,0.004c-0.584,0.012-1.166,0.027-1.748,0.055c-0.396,0.02-0.756,0.408-0.768,0.836
	c-0.01,0.416,0,0.834,0.027,1.248c0.024,0.432,0.391,0.85,0.77,0.832c1.832-0.078,3.664-0.17,5.492-0.291
	c0.34-0.025,0.592-0.303,0.658-0.656c0.074-0.41,0.112-0.826,0.146-1.24c0.022-0.283-0.315-0.697-0.58-0.709
	C365.551,35.671,364.635,35.646,363.719,35.61"/>
<path fill="#FFFFFF" d="M302.982,22.483c0.014-0.082,0.041-0.164,0.047-0.248c0.17-2.111-0.207-2.17-2.027-2.256
	c-2.025-0.098-4.049-0.158-6.076-0.223c-1.18-0.037-2.363-0.045-3.545-0.063c-1.246-0.025-1.74-0.232-1.939-1.803
	c-0.194-1.504-0.323-3.014-0.561-4.52c-0.471-2.998-0.83-6.014-1.23-8.973c0.211-0.49,0.578-0.695,1.015-0.736
	c2.185-0.201,4.369-0.432,6.563-0.553c3.369-0.193,6.746-0.326,10.121-0.453c4.051-0.15,8.104-0.156,12.155,0.039
	c3.039,0.145,6.078,0.277,9.115,0.35c2.539,0.064,5.051,0.402,7.569,0.658c0.248,0.025,0.513,0.08,0.724,0.205
	c0.2,0.115,0.366,0.32,0.493,0.523c0.08,0.131,0.08,0.322,0.095,0.49c0.144,1.936,0.308,3.869,0.414,5.811
	c0.129,2.443,0.219,4.893,0.312,7.342c0.026,0.697-0.332,1.049-1.063,1.115c-3.445,0.314-6.896,0.631-10.365,0.566
	c-0.336-0.006-0.682,0.004-1.004,0.09c-0.228,0.059-0.442,0.211-0.508,0.5c-0.152,0.678-0.078,1.342,0.073,2.002
	c0.031,0.135,0.207,0.309,0.343,0.33c0.498,0.084,1.002,0.152,1.502,0.156c3.125,0.01,6.252,0.115,9.364,0.375
	c0.418,0.033,0.843,0.074,1.25,0.158c0.355,0.074,0.578,0.354,0.662,0.689c0.086,0.322,0.119,0.664,0.136,0.998
	c0.096,2.281,0.19,4.557,0.264,6.838c0.146,4.813,0.308,9.621,0.402,14.434c0.1,4.813,0.172,9.629,0.182,14.441
	c0.017,7.35,0.015,14.696-0.067,22.045c-0.047,3.967-0.265,7.933-0.404,11.898c-0.004,0.086-0.016,0.17-0.023,0.252
	c-0.055,0.693-0.438,1.146-1.074,1.186c-3.623,0.213-7.219,0.779-10.864,0.65c-2.193-0.078-4.394-0.025-6.589-0.041
	c-1.774-0.012-3.547-0.041-5.305-0.33c-0.498-0.082-1.01-0.119-1.514-0.119c-3.645,0-7.242-0.521-10.854-0.871
	c-1.851-0.18-3.687-0.475-5.523-0.721c-0.264-0.035-0.629-0.418-0.668-0.689c-0.043-0.332-0.094-0.666-0.111-1.004
	c-0.148-3.117-0.367-6.239-0.424-9.36c-0.102-5.914-0.436-11.813-0.732-17.718c-0.1-2.025-0.188-4.051-0.305-6.07
	c-0.174-3.123-0.352-6.244-0.549-9.359c-0.092-1.436-0.229-2.863-0.348-4.293c-0.021-0.252-0.082-0.508-0.082-0.754
	c-0.006-3.555-0.521-7.07-0.742-10.609c-0.156-2.441-0.467-4.873-0.691-7.314c-0.102-1.088-0.168-2.186-0.242-3.281
	c-0.02-0.24,0.357-0.695,0.601-0.736c0.498-0.082,1-0.178,1.502-0.203c3.032-0.164,6.069-0.313,9.106-0.465
	C302.059,22.837,302.58,22.886,302.982,22.483 M323.965,50.177h0.076c0.039,1.182,0.094,2.361,0.117,3.545
	c0.043,2.785,0.072,5.574,0.113,8.359c0.012,0.676,0.041,1.35,0.074,2.025c0.02,0.338,0.325,0.678,0.627,0.678
	c0.928-0.008,1.854-0.018,2.776-0.055c0.481-0.02,0.875-0.523,0.879-1.063c0-0.25-0.012-0.502-0.021-0.758
	c-0.125-3.293-0.284-6.582-0.36-9.877c-0.131-5.406-0.457-10.799-0.853-16.193c-0.01-0.162-0.041-0.342-0.106-0.49
	c-0.065-0.141-0.174-0.322-0.304-0.365c-0.887-0.313-1.811-0.393-2.739-0.268c-0.133,0.018-0.322,0.174-0.358,0.301
	c-0.095,0.318-0.156,0.656-0.146,0.986C323.805,41.396,323.887,45.786,323.965,50.177 M305.695,59.013
	c-0.113-2.1-0.213-3.951-0.318-5.801c-0.092-1.598-0.23-3.195-0.281-4.795c-0.07-2.104-0.131-4.207-0.4-6.303
	c-0.139-1.082-0.146-2.184-0.204-3.275c-0.041-0.758-0.052-1.518-0.097-2.273c-0.02-0.334-0.086-0.668-0.141-1.002
	c-0.041-0.26-0.438-0.629-0.701-0.635c-0.67-0.002-1.342,0.006-2.014,0.02c-0.299,0.006-0.586,0.363-0.582,0.697
	c0.004,0.338,0.008,0.67,0.029,1.008c0.309,5.385,0.945,10.744,1.094,16.137c0.008,0.256,0.023,0.508,0.061,0.756
	c0.351,2.344,0.367,4.701,0.422,7.063c0.019,0.842,0.072,1.686,0.125,2.523c0.021,0.248,0.049,0.518,0.162,0.732
	c0.107,0.205,0.303,0.441,0.502,0.492c0.486,0.129,0.994,0.172,1.494,0.209c0.434,0.033,0.844-0.326,0.844-0.75
	C305.699,62.132,305.695,60.45,305.695,59.013 M316.764,75.773c-3.899,0.041-7.522,0.074-11.146,0.117
	c-0.584,0.014-1.17,0.057-1.752,0.127c-0.132,0.016-0.32,0.193-0.347,0.322c-0.192,0.92-0.141,1.844,0.097,2.748
	c0.036,0.134,0.223,0.256,0.366,0.326c0.146,0.069,0.326,0.096,0.494,0.092c4.297-0.051,8.59-0.075,12.89-0.187
	c2.27-0.053,4.536-0.282,6.807-0.385c1.354-0.063,2.683-0.264,3.996-0.555c0.209-0.047,0.468-0.275,0.531-0.473
	c0.239-0.732,0.219-1.494,0.002-2.232c-0.035-0.133-0.226-0.293-0.361-0.311c-0.411-0.051-0.836-0.074-1.25-0.057
	C323.557,75.463,320.021,75.629,316.764,75.773 M313.127,49.724h0.043c0.066,1.266,0.139,2.529,0.201,3.793
	c0.104,1.936,0.215,3.875,0.297,5.814c0.047,1.184,0.037,2.365,0.063,3.545c0.011,0.422,0.041,0.84,0.074,1.264
	c0.029,0.326,0.318,0.67,0.631,0.686c0.416,0.025,0.834,0.008,1.248-0.02c0.31-0.014,0.408-0.285,0.48-0.51
	c0.068-0.238,0.076-0.5,0.074-0.754c-0.074-4.219-0.074-8.441-0.262-12.66c-0.134-3.033-0.285-6.068-0.336-9.104
	c-0.023-1.184-0.058-2.365-0.123-3.545c-0.043-0.756-0.15-1.51-0.261-2.262c-0.053-0.363-0.312-0.611-0.659-0.684
	c-0.408-0.08-0.826-0.109-1.24-0.121c-0.32-0.008-0.672,0.344-0.664,0.646c0.033,1.348,0.065,2.693,0.123,4.043
	c0.092,2.275,0.217,4.549,0.303,6.826C313.156,47.694,313.127,48.708,313.127,49.724 M312.844,22.737
	c0.367,0,0.533,0.008,0.701-0.002c0.463-0.023,0.838-0.342,0.83-0.75c-0.006-0.414-0.051-0.83-0.113-1.238
	c-0.053-0.311-0.369-0.553-0.729-0.57c-0.332-0.023-0.666-0.025-1-0.008c-0.301,0.018-0.637,0.359-0.686,0.639
	c-0.095,0.504-0.099,1.008,0.147,1.463c0.104,0.189,0.344,0.33,0.557,0.434C312.688,22.776,312.877,22.737,312.844,22.737"/>
<path fill="#FFFFFF" d="M194.45,62.96c0.166,6.715,0.318,12.542,0.453,18.368c0.059,2.617,0.092,5.24,0.133,7.857
	c0.006,0.502-0.004,1.012-0.037,1.516c-0.023,0.355-0.203,0.658-0.539,0.789c-0.549,0.219-1.098,0.475-1.672,0.57
	c-3.074,0.526-6.125,1.194-9.23,1.543c-3.109,0.35-6.227,0.512-9.34,0.75c-4.477,0.34-8.947,0.381-13.423,0.34
	c-2.109-0.025-4.219-0.178-6.329-0.271c-1.853-0.076-3.711-0.133-5.569-0.236c-1.516-0.082-3.029-0.211-4.546-0.33
	c-1.345-0.104-2.694-0.198-4.037-0.336c-0.938-0.1-1.143-0.469-1.19-1.336c-0.041-0.674-0.033-1.354-0.027-2.026
	c0.071-5.918-0.137-11.828-0.393-17.736c-0.128-3.038-0.277-6.073-0.433-9.112c-0.049-0.926-0.156-1.85-0.241-2.775
	c-0.041-0.42-0.131-0.838-0.146-1.258c-0.084-2.787-0.367-5.559-0.588-8.334c-0.335-4.213-0.843-8.406-1.232-12.609
	c-0.026-0.25-0.077-0.516-0.013-0.746c0.059-0.221,0.218-0.459,0.402-0.582c0.198-0.133,0.475-0.168,0.724-0.197
	c2.855-0.311,5.703-0.66,8.569-0.871c2.866-0.209,5.716-0.564,8.59-0.582c5.383-0.648,10.797-0.486,16.199-0.66
	c5.324-0.174,10.643,0.154,15.963,0.256c0.336,0.006,0.678,0.02,1.008,0.078c1.588,0.293,3.184,0.375,4.791,0.459
	c1.238,0.066,1.574,0.441,1.615,1.758c0.188,5.996,0.387,11.992,0.527,17.986C194.504,58.103,194.45,60.976,194.45,62.96
	 M153.156,58.751c1.25-0.111,2.084-0.186,2.914-0.266c0.267-0.029,0.661-0.453,0.638-0.693c-0.122-1.42-0.24-2.838-0.392-4.252
	c-0.059-0.543-0.482-0.857-1.087-0.795c-1.33,0.139-2.658,0.313-3.986,0.486c-0.382,0.051-0.656,0.51-0.615,0.959
	c0.123,1.254,0.244,2.504,0.37,3.754c0.045,0.445,0.409,0.805,0.812,0.807C152.397,58.759,152.982,58.751,153.156,58.751
	 M172.833,57.47c0.256,0.082,0.488,0.217,0.727,0.223c1.262,0.008,2.521-0.014,3.783-0.041c0.57-0.016,0.988-0.432,0.943-0.957
	c-0.107-1.254-0.244-2.506-0.391-3.756c-0.049-0.42-0.428-0.697-0.914-0.697c-1.26,0.004-2.521,0.014-3.781,0.045
	c-0.586,0.016-0.953,0.396-0.953,0.945C172.247,54.667,172.417,56.075,172.833,57.47 M157.429,76.307
	c0-0.756,0.005-1.508-0.008-2.262c-0.008-0.406-0.42-0.846-0.794-0.822c-1.254,0.084-2.507,0.186-3.756,0.301
	c-0.379,0.033-0.808,0.496-0.805,0.852c0.003,0.84,0.015,1.676,0.064,2.51c0.126,2.261,0.203,2.318,2.31,2.162
	c0.166-0.01,0.336-0.019,0.503-0.022C157.65,78.947,157.521,78.996,157.429,76.307 M176.866,78.047
	c0.275-0.016,0.943-0.049,1.611-0.098c0.268-0.021,0.592-0.389,0.629-0.691c0.145-1.258,0.049-2.508-0.104-3.754
	c-0.037-0.318-0.35-0.656-0.635-0.701c-1.334-0.207-2.666-0.178-4-0.008c-0.273,0.033-0.631,0.416-0.633,0.691
	c-0.008,0.67-0.012,1.338,0.01,2.01C173.834,78.217,173.819,78.084,176.866,78.047"/>
<path fill="#FFFFFF" d="M199.234,54.321c0.627-0.592,1.467-0.797,2.238-1.123c1.553-0.654,3.123-1.266,4.68-1.914
	c0.727-0.303,0.973-0.85,0.803-1.629c-0.094-0.436-0.434-0.785-0.846-0.811c-1.264-0.07-2.529-0.123-3.793-0.197
	c-0.756-0.043-1.515-0.096-2.271-0.184c-0.535-0.064-0.918-0.506-0.955-1.018c-0.018-0.254-0.033-0.508-0.033-0.76
	c0-3.293,0-6.588,0.004-9.881c0-0.338,0.027-0.674,0.058-1.008c0.032-0.4,0.405-0.787,0.817-0.844
	c1.34-0.184,2.674-0.398,4.017-0.533c3.303-0.33,2.795-0.355,2.758-3.424c0-0.164-0.021-0.354-0.106-0.488
	c-0.133-0.199-0.295-0.463-0.496-0.518c-0.646-0.189-1.313-0.305-1.974-0.428c-1.245-0.236-2.469-0.543-3.633-1.063
	c-0.308-0.135-0.631-0.258-0.908-0.441c-0.508-0.346-0.846-0.828-0.866-1.465c-0.074-2.109-0.142-4.219-0.213-6.328
	c-0.078-2.199-0.312-4.381-0.66-6.549c-0.289-1.832-0.533-3.672-0.83-5.502c-0.117-0.746-0.33-1.48-0.476-2.223
	c-0.086-0.418,0.291-0.855,0.72-0.838c0.844,0.033,1.684,0.082,2.524,0.148c1.851,0.148,3.701,0.316,5.556,0.461
	c0.452,0.033,0.854-0.314,0.866-0.734c0.033-1.094,0.041-2.191,0.074-3.289c0.014-0.438,0.353-0.852,0.741-0.904
	c0.752-0.096,1.509-0.234,2.267-0.242c3.629-0.035,7.261-0.041,10.894-0.041c0.416,0,0.836,0.094,1.246,0.174
	c0.362,0.072,0.619,0.354,0.672,0.684c0.106,0.66,0.133,1.334,0.176,2.006c0.031,0.416,0,0.85,0.361,1.188
	c0.741-0.012,1.465-0.148,2.194-0.385c1.765-0.564,3.554-1.074,5.332-1.596c0.158-0.049,0.33-0.053,0.496-0.082
	c0.293-0.047,0.724,0.244,0.748,0.527c0.035,0.332,0.078,0.67,0.078,1.004c0.004,7.52,0,15.035-0.005,22.551
	c0,0.338-0.018,0.674-0.045,1.012c-0.034,0.475-0.461,0.941-0.963,1.043c-0.33,0.066-0.664,0.113-0.998,0.16
	c-1.924,0.25-3.848,0.496-5.772,0.75c-0.166,0.023-0.362,0.035-0.483,0.131c-0.189,0.145-0.435,0.342-0.472,0.549
	c-0.166,1.002-0.264,2.014,0.39,2.988c0.559,0.027,1.146,0.078,1.729,0.07c1.521-0.01,3.037-0.059,4.56-0.078
	c0.422-0.002,0.84,0.041,1.26,0.078c0.274,0.023,0.676,0.395,0.705,0.646c0.037,0.332,0.088,0.666,0.088,1.004
	c0.008,3.631,0.004,7.264,0,10.895c0,0.252-0.025,0.502-0.047,0.756c-0.033,0.389-0.408,0.811-0.813,0.859
	c-1.676,0.182-3.321,0.605-5.022,0.598c-0.676-0.004-1.349,0.096-2.019,0.164c-0.276,0.025-0.59,0.381-0.646,0.691
	c-0.076,0.457,0.106,0.965,0.438,1.088c0.554,0.203,1.108,0.406,1.677,0.555c1.957,0.514,3.922,0.998,5.881,1.494
	c0.244,0.064,0.5,0.119,0.723,0.23c0.463,0.23,0.854,0.535,0.92,1.113c0.273,2.346,0.615,4.686,0.814,7.039
	c0.639,7.414,0.784,14.843,0.578,22.275c-0.084,3.121-0.343,6.24-0.525,9.357c-0.025,0.408-0.541,0.766-0.912,0.635
	c-0.717-0.248-1.424-0.508-2.129-0.785c-1.729-0.68-3.445-1.377-5.172-2.055c-0.312-0.121-0.644-0.195-0.965-0.281
	c-0.285-0.074-0.713,0.24-0.728,0.537c-0.021,0.42-0.028,0.842-0.047,1.267c-0.021,0.332-0.041,0.67-0.072,1.002
	c-0.028,0.295-0.354,0.649-0.647,0.702c-0.582,0.097-1.164,0.207-1.748,0.271c-3.363,0.354-6.734,0.563-10.115,0.302
	c-0.754-0.056-1.508-0.197-2.24-0.371c-0.527-0.125-0.854-0.525-0.932-1.078c-0.033-0.252-0.033-0.508-0.033-0.76
	c-0.033-3.218,0.152-3.138-3.021-1.896c-1.646,0.646-3.317,1.225-4.979,1.832c-0.16,0.057-0.564-0.217-0.582-0.381
	c-0.031-0.252-0.082-0.5-0.082-0.75c-0.008-0.76,0.004-1.521,0.012-2.279c0.055-5.066,0.15-10.135,0.154-15.199
	c0-5.319-0.092-10.64-0.129-15.96C199.068,56.007,198.932,55.155,199.234,54.321"/>
<path fill="#FFFFFF" d="M135.073,92.98c-1.197,0.725-2.492,0.846-3.715,1.08c-3.063,0.578-6.152,1.053-9.266,1.287
	c-5.486,0.409-10.972,0.381-16.447-0.105c-1.346-0.115-2.677-0.338-4.016-0.516c-0.389-0.056-0.737-0.492-0.731-0.912
	c0.008-0.336,0.008-0.674,0.053-1.008c0.593-4.449,0.7-8.921,0.638-13.4c-0.038-2.766,0.073-2.217,2.231-2.736
	c1.228-0.297,2.499-0.406,3.745-0.615c0.415-0.07,0.823-0.178,1.231-0.281c0.237-0.059,0.564-0.525,0.542-0.789
	c-0.063-0.668-0.112-1.344-0.227-2.008c-0.182-1.023-0.497-1.252-1.569-1.156c-0.751,0.064-1.505,0.182-2.253,0.297
	c-0.501,0.074-0.99,0.234-1.495,0.268c-1.92,0.137-2.187,0.273-2.169-1.934c0.041-4.81-0.01-9.626-0.277-14.433
	c-0.079-1.434-0.238-2.861-0.356-4.289c-0.033-0.418-0.059-0.842-0.064-1.262c-0.007-0.402,0.318-0.871,0.679-0.979
	c0.323-0.1,0.644-0.191,0.975-0.254c1.409-0.262,2.822-0.51,4.227-0.764c0.166-0.033,0.323-0.105,0.482-0.156
	c0.52-0.164,0.868-0.602,0.882-1.105c0.004-0.172,0.015-0.338,0.004-0.508c-0.115-1.684-0.226-3.371-0.36-5.055
	c-0.026-0.33-0.126-0.658-0.211-0.986c-0.067-0.262-0.497-0.596-0.764-0.57c-0.505,0.047-1.008,0.096-1.502,0.186
	c-1.164,0.207-2.32,0.443-3.484,0.658c-0.246,0.047-0.505,0.035-0.757,0.041c-0.24,0.008-0.683-0.373-0.709-0.629
	c-0.054-0.5-0.115-1.006-0.126-1.508c-0.048-1.688-0.115-3.375-0.374-5.049c-0.141-0.914-0.159-1.85-0.244-2.775
	c-0.253-2.859-0.656-5.699-1.232-8.514c-0.218-1.07-0.385-2.15-0.7-3.203c-0.126-0.426,0.133-0.871,0.556-1
	c1.371-0.408,2.748-0.805,4.122-1.205c0.809-0.238,1.615-0.498,2.43-0.713c1.372-0.354,1.605-0.582,1.323-2.174
	c-0.474-2.652-0.923-5.316-1.731-7.9c-0.123-0.389-0.138-0.822-0.149-1.234c-0.004-0.135,0.141-0.359,0.257-0.391
	c1.056-0.266,2.117-0.529,3.184-0.738c2.322-0.443,4.642-0.869,6.97-1.279c3.237-0.566,6.478-1.115,9.723-1.656
	c0.549-0.092,1.012,0.172,1.212,0.689c0.303,0.787,0.623,1.572,0.831,2.385c0.845,3.264,1.638,6.537,2.276,9.855
	c0.656,3.395,1.164,6.818,1.758,10.227c0.359,2.07,0.526,4.178,0.77,6.271c0.374,3.188,0.746,6.375,1.105,9.561
	c0.115,1.008,0.186,2.016,0.282,3.023c0.115,1.178,0.233,2.352,0.353,3.527c0.051,0.506,0.133,1.006,0.162,1.51
	c0.427,6.824,0.876,13.648,1.361,20.467c0.071,1.012,0.053,2.026,0.1,3.038c0.133,2.867,0.308,5.732,0.412,8.6
	c0.108,2.955,0.149,5.909,0.216,8.862c0.018,0.929,0.044,1.859,0.025,2.787C135.252,92.221,135.132,92.629,135.073,92.98"/>
<path fill="#FFFFFF" d="M289.953,75.65c0.164,5.316,0.326,10.635,0.49,15.952c0.018,0.59,0.039,1.18,0.033,1.771
	c-0.021,1.017-0.334,1.353-1.377,1.381c-1.771,0.045-3.546,0.074-5.316,0.074c-4.477,0.004-8.951-0.017-13.426-0.029
	c-0.338,0-0.676-0.022-1.013-0.049c-0.54-0.045-0.887-0.429-0.896-1.022c-0.014-0.591,0.018-1.185,0.018-1.773
	c-0.008-1.012-0.014-2.023-0.041-3.035c-0.012-0.42-0.352-0.809-0.756-0.902c-0.33-0.076-0.66-0.17-0.994-0.197
	c-2.525-0.207-5.059-0.221-7.59-0.108c-0.313,0.017-0.668,0.338-0.678,0.631c-0.041,0.841-0.072,1.685-0.094,2.522
	c-0.025,0.931-0.029,1.859-0.066,2.785c-0.012,0.363-0.475,0.814-0.834,0.838c-0.334,0.025-0.676,0.052-1.008,0.025
	c-3.879-0.307-7.766-0.26-11.646-0.336c-2.111-0.045-4.221-0.148-6.326-0.242c-0.334-0.014-0.68-0.07-0.99-0.182
	c-0.33-0.111-0.59-0.387-0.614-0.738c-0.045-0.668-0.063-1.346-0.021-2.016c0.238-3.455,0.281-6.92,0.234-10.379
	c-0.045-3.041-0.17-6.076-0.256-9.113c-0.066-2.278-0.137-4.558-0.191-6.837c-0.041-1.691-0.074-3.379-0.32-5.053
	c-0.1-0.668-0.119-1.348-0.17-2.018c-0.155-1.936-0.313-3.869-0.471-5.805c-0.025-0.338-0.049-0.672-0.064-1.01
	c-0.018-0.342,0.218-0.693,0.513-0.785c0.237-0.074,0.479-0.182,0.726-0.209c1.932-0.203,3.862-0.4,5.795-0.578
	c1.512-0.141,3.024-0.26,4.543-0.367c1.264-0.088,2.526-0.178,3.791-0.215c3.631-0.1,7.256-0.191,10.887-0.252
	c1.605-0.027,3.211,0.029,4.813,0.063c3.121,0.064,6.248,0.137,9.369,0.207c0.252,0.004,0.51,0.004,0.76,0.031
	c3.531,0.328,7.057,0.662,10.588,0.998c0.166,0.018,0.332,0.053,0.494,0.088c0.387,0.08,0.797,0.496,0.853,0.852
	c0.01,0.082,0.032,0.164,0.032,0.25c0.06,4.053,0.707,8.072,0.656,12.133c-0.02,1.52,0.137,3.035,0.215,4.555
	c0.129,2.698,0.262,5.394,0.396,8.095C289.982,75.648,289.969,75.648,289.953,75.65 M267.357,60.917
	c-0.248-0.045-0.496-0.125-0.742-0.125c-2.857-0.012-5.713-0.012-8.568-0.008c-0.166,0-0.334,0.037-0.5,0.055
	c-0.293,0.033-0.639,0.391-0.619,0.678c0.029,0.502,0.068,1.008,0.137,1.502c0.06,0.449,0.425,0.791,0.838,0.795
	c3.023,0,6.048-0.008,9.072-0.023c0.162,0,0.338-0.049,0.478-0.129c0.137-0.078,0.293-0.215,0.325-0.355
	C267.984,62.46,267.912,61.651,267.357,60.917 M263.057,76.979V77c0.42,0,0.838,0.004,1.258,0c1.09-0.012,2.181-0.02,3.271-0.039
	c0.235-0.006,0.586-0.424,0.59-0.713c0.005-0.248,0.005-0.506-0.032-0.75c-0.063-0.438-0.396-0.771-0.81-0.846
	c-0.162-0.025-0.326-0.076-0.494-0.08c-2.684-0.035-5.364-0.068-8.049-0.088c-0.156-0.006-0.334,0.047-0.472,0.129
	c-0.131,0.078-0.297,0.215-0.315,0.34c-0.049,0.412-0.067,0.83-0.049,1.246c0.021,0.428,0.383,0.771,0.828,0.775
	C260.205,76.988,261.633,76.979,263.057,76.979"/>
<path fill="#FFFFFF" d="M266.797,45.556c-6.98,0.033-12.135,0.012-17.281,0.396c-1.094,0.082-2.195,0.082-3.291,0.098
	c-2.029,0.025-4.059,0.059-6.063,0.398c-0.334,0.057-0.672,0.09-1.008,0.102c-4.803,0.197-4.168,0.99-4.215-3.875
	c-0.01-1.268,0-2.531,0.026-3.801c0.013-0.564,0.343-0.986,0.88-1.09c0.741-0.137,1.493-0.266,2.25-0.313
	c1.266-0.068,2.521-0.188,3.776-0.369c1.252-0.18,2.524-0.189,3.787-0.297c0.59-0.049,1.172-0.137,1.754-0.227
	c0.272-0.041,0.67-0.441,0.674-0.686c0.013-1.098,0.021-2.191,0.008-3.285c-0.008-0.396-0.438-0.787-0.852-0.775
	c-1.185,0.033-2.367,0.066-3.546,0.141c-1.77,0.113-3.536,0.24-5.307,0.396c-0.838,0.072-1.672,0.221-2.51,0.326
	c-0.375,0.049-0.82-0.348-0.871-0.76c-0.023-0.166-0.064-0.332-0.064-0.5c-0.008-2.449-0.008-4.9-0.008-7.354
	c0-0.166,0.023-0.332,0.041-0.5c0.041-0.426,0.347-0.846,0.736-0.926c0.658-0.133,1.322-0.287,1.99-0.342
	c2.943-0.256,5.887-0.479,8.832-0.711c0.166-0.016,0.334-0.059,0.5-0.09c0.301-0.051,0.646-0.389,0.666-0.674
	c0.096-1.18,0.088-2.359-0.127-3.527c-0.049-0.26-0.457-0.611-0.736-0.604c-0.926,0.029-1.855,0.059-2.779,0.113
	c-1.518,0.094-3.037,0.189-4.549,0.32c-1.178,0.1-2.348,0.252-3.523,0.383c-0.528,0.059-0.971-0.309-1.02-0.877
	c-0.025-0.334-0.045-0.67-0.045-1.012c-0.006-3.631-0.012-7.264-0.012-10.896c0.006-0.334,0.049-0.668,0.09-1.002
	c0.033-0.285,0.393-0.66,0.666-0.682c0.506-0.041,1.01-0.09,1.514-0.092c2.365-0.012,4.73-0.004,7.098-0.012
	c0.419,0,0.847-0.027,1.257-0.088c0.246-0.039,0.471-0.195,0.53-0.469c0.052-0.244,0.063-0.5,0.117-0.744
	c0.074-0.354,0.279-0.639,0.646-0.68c1.51-0.17,3.021-0.42,4.533-0.438c4.984-0.055,9.967-0.037,14.951-0.01
	c1.012,0.002,2.022,0.113,3.028,0.24c1.38,0.17,1.375,0.197,1.734,1.676c0.146,0.59,0.463,0.908,1.008,0.949
	c0.676,0.051,1.353,0.074,2.024,0.104c2.447,0.104,4.898,0.209,7.347,0.318c0.332,0.016,0.674,0.049,0.996,0.129
	c0.338,0.082,0.623,0.291,0.715,0.646c0.213,0.814,0.429,1.635,0.59,2.463c0.527,2.643,1.035,5.293,1.533,7.945
	c0.063,0.326,0.035,0.67,0.041,1.008c0.002,0.311-0.315,0.684-0.608,0.693c-0.505,0.016-1.013,0.031-1.517,0.016
	c-2.955-0.07-5.912-0.16-8.867-0.223c-0.588-0.016-1.178,0.041-1.767,0.082c-0.311,0.018-0.604,0.363-0.598,0.697
	c0.008,0.674,0.01,1.348,0.051,2.02c0.06,0.998,0.396,1.32,1.437,1.354c2.108,0.066,4.224,0.09,6.332,0.164
	c1.604,0.055,3.207,0.15,4.81,0.244c0.334,0.018,0.68,0.066,0.981,0.186c0.215,0.086,0.483,0.295,0.526,0.492
	c0.24,1.068,0.49,2.146,0.599,3.232c0.129,1.344,0.231,2.689,0.469,4.025c0.132,0.736,0.082,1.508,0.103,2.264
	c0.008,0.293-0.355,0.623-0.668,0.631c-0.422,0.012-0.84,0.025-1.264,0.012c-2.195-0.074-4.392-0.166-6.587-0.238
	c-1.686-0.051-3.377-0.074-5.065-0.104c-0.25-0.004-0.502,0.037-0.754,0.063c-0.316,0.031-0.689,0.35-0.701,0.631
	c-0.029,0.842-0.059,1.684-0.055,2.525c0.004,0.521,0.405,0.896,0.996,0.938c0.762,0.051,1.521,0.078,2.28,0.1
	c2.785,0.086,5.572,0.145,8.358,0.256c1.097,0.045,2.187,0.189,3.271,0.316c0.428,0.051,0.781,0.434,0.836,0.846
	c0.062,0.5,0.109,1.004,0.154,1.508c0.182,1.936,0.359,3.871,0.529,5.807c0.022,0.248,0.02,0.504,0.02,0.756
	c0.004,0.281-0.346,0.68-0.619,0.701c-0.42,0.029-0.842,0.082-1.262,0.066c-3.211-0.088-6.418-0.211-9.625-0.289
	C273.078,45.671,269.023,45.601,266.797,45.556"/>
<path fill="#FFFFFF" d="M0.542,67.532c-0.049-0.438-0.164-0.938-0.145-1.432C0.73,58.172,0.66,50.231,1.179,42.307
	c0.126-1.934,0.1-3.883,0.152-5.82c0.015-0.59,0.041-1.18,0.082-1.77c0.03-0.42,0.426-0.777,0.853-0.744
	c0.841,0.066,1.679,0.15,2.513,0.256c1.339,0.162,2.674,0.363,4.016,0.518c1.424,0.164,2.851,0.309,4.282,0.436
	c1.009,0.084,2.021,0.174,3.03,0.18c3.548,0.027,7.093,0.023,10.637,0.016c1.354-0.004,2.699-0.055,4.035-0.322
	c0.411-0.08,0.837-0.129,1.256-0.143c2.628-0.061,5.202-0.574,7.779-1.018c3.066-0.527,6.111-1.217,9.069-2.217
	c0.397-0.139,0.808-0.238,1.22-0.328c0.574-0.125,1.05,0.141,1.179,0.664c0.104,0.408,0.204,0.82,0.253,1.238
	c0.34,3.102,0.682,6.201,0.993,9.307c0.193,1.934,0.329,3.869,0.493,5.805c0.115,1.34,0.245,2.686,0.352,4.031
	c0.078,1.01,0.152,2.023,0.197,3.031c0.126,3.037,0.248,6.072,0.356,9.109c0.055,1.602,0.089,3.207,0.108,4.809
	c0.006,0.539-0.393,0.952-0.92,1.046c-2.333,0.393-4.668,0.711-7.03,0.889c-4.298,0.318-8.594,0.467-12.9,0.133
	c-0.337-0.025-0.674-0.033-1.012-0.063c-2.462-0.215-2.332-0.404-2.413-2.587c-0.045-1.268-0.063-2.531-0.112-3.797
	c-0.018-0.594-0.411-0.912-0.986-0.867c-1.261,0.092-2.521,0.217-3.786,0.248c-1.093,0.025-2.188-0.066-3.285-0.1
	c-0.333-0.012-0.685,0.318-0.66,0.607c0.026,0.334,0.074,0.668,0.096,1.002c0.082,1.18,0.164,2.357,0.227,3.537
	c0.012,0.248-0.045,0.5-0.078,0.747c-0.037,0.277-0.374,0.623-0.671,0.686c-0.244,0.053-0.493,0.123-0.741,0.146
	c-3.122,0.232-6.226,0.232-9.336-0.293c-2.084-0.35-4.139-0.763-6.133-1.431C3.018,68.825,1.735,68.39,0.542,67.532 M21.394,45.606
	c0,0.035,0.004,0.064,0.004,0.094c1.835-0.197,3.667-0.393,5.498-0.6c0.46-0.053,0.783-0.461,0.701-0.861
	c-0.103-0.492-0.215-0.982-0.348-1.469c-0.112-0.408-0.498-0.666-0.946-0.674c-2.021-0.041-4.008,0.297-6.006,0.523
	c-1.777,0.203-1.765,0.426-1.613,2.084c0.007,0.084,0.033,0.162,0.048,0.248c0.048,0.307,0.359,0.645,0.66,0.65
	C20.059,45.618,20.726,45.606,21.394,45.606 M20.434,53.837c-0.586,0.541-0.46,1.197-0.268,1.848
	c0.041,0.141,0.186,0.275,0.316,0.354c0.133,0.08,0.307,0.121,0.467,0.129c2.44,0.107,4.831-0.395,7.252-0.561
	c0.253-0.014,0.568-0.418,0.575-0.729c0.007-0.25,0.019-0.523-0.081-0.738c-0.09-0.199-0.298-0.393-0.501-0.473
	c-0.218-0.088-0.493-0.068-0.738-0.047c-1.168,0.088-2.332,0.25-3.504,0.285C22.785,53.94,21.613,53.864,20.434,53.837"/>
<path fill="#FFFFFF" d="M176.819-0.103c1.184,0,2.365,0.031,3.545-0.006c1.709-0.057,3.348,0.355,4.998,0.693
	c0.623,0.131,1.023,0.57,1.123,1.223c0.133,0.836,0.24,1.674,0.387,2.504c0.117,0.666,0.502,1.008,1.215,1.072
	c0.756,0.066,1.518,0.084,2.273,0.135c0.332,0.023,0.674,0.061,1,0.139c0.35,0.082,0.631,0.342,0.688,0.672
	c0.162,0.91,0.285,1.834,0.363,2.758c0.072,0.838,0.072,1.682,0.104,2.527c0.025,0.762-0.012,1.529,0.084,2.277
	c0.494,3.771,0.432,7.58,0.803,11.361c0.082,0.752,0.076,1.512,0.096,2.268c0.006,0.297-0.342,0.668-0.643,0.676
	c-0.84,0.02-1.684,0.014-2.523,0.029c-0.42,0.008-0.85-0.008-1.254,0.078c-0.203,0.045-0.492,0.277-0.52,0.461
	c-0.096,0.662-0.096,1.338-0.137,2.012c-0.021,0.313-0.322,0.646-0.627,0.688c-0.332,0.043-0.668,0.107-1.002,0.107
	c-5.4,0.008-10.805,0.008-16.205,0.008c-0.252,0-0.506-0.031-0.756-0.055c-0.557-0.055-0.961-0.422-1.029-0.934
	c-0.082-0.666-0.143-1.338-0.229-2.006c-0.037-0.273-0.43-0.623-0.703-0.641c-0.334-0.025-0.672-0.066-1.006-0.053
	c-2.615,0.137-5.224,0.277-7.835,0.426c-0.475,0.027-0.765,0.338-0.771,0.813c-0.004,0.252,0.019,0.506,0.026,0.758
	c0.002,0.17,0.011,0.338,0,0.504c-0.026,0.592-0.354,0.967-0.905,1.012c-1.851,0.145-3.701,0.291-5.551,0.424
	c-2.692,0.199-5.387,0.373-8.078,0.584c-1.262,0.102-2.515,0.271-3.776,0.387c-0.544,0.053-0.951-0.268-1.123-0.816
	c-0.048-0.16-0.067-0.328-0.1-0.498c-0.033-0.162-0.063-0.328-0.111-0.492c-0.122-0.414-0.489-0.678-0.95-0.658
	c-0.589,0.025-1.174,0.076-1.764,0.109c-0.323,0.02-0.656-0.232-0.738-0.559c-0.141-0.572-0.312-1.143-0.4-1.725
	c-0.371-2.502-0.705-5.01-1.079-7.512c-0.282-1.916-0.616-3.826-0.902-5.744c-0.249-1.664-0.462-3.34-0.685-5.012
	c-0.041-0.297,0.237-0.697,0.518-0.771c0.649-0.178,1.302-0.342,1.951-0.531c0.4-0.117,0.661-0.541,0.579-0.996
	c-0.159-0.912-0.367-1.818-0.535-2.725c-0.073-0.412-0.152-0.836-0.129-1.246c0.015-0.213,0.2-0.498,0.39-0.598
	c0.361-0.191,0.774-0.354,1.182-0.404c4.434-0.553,8.861-1.201,13.337-1.303c1.602-0.033,3.204,0.055,4.804,0.105
	c0.464,0.016,0.791,0.301,0.935,0.73c0.156,0.475,0.278,0.967,0.372,1.461c0.11,0.578,0.159,1.166,0.262,1.746
	c0.079,0.42,0.479,0.732,0.92,0.713c2.777-0.156,5.556-0.324,8.335-0.498c0.451-0.029,0.789-0.422,0.756-0.846
	c-0.07-0.922-0.182-1.846-0.227-2.773c-0.045-0.879,0.313-1.182,1.168-1.354c0.33-0.063,0.672-0.076,1.006-0.111
	c0.422-0.037,0.852-0.018,1.26-0.109C171.583-0.22,174.208-0.067,176.819-0.103"/>
<path fill="#FFFFFF" d="M65.282,36.896c-1.939,0-3.881,0.008-5.82-0.006c-0.505-0.002-1.016-0.027-1.517-0.107
	c-1.446-0.221-1.725-0.529-1.876-1.889c-0.26-2.348-0.538-4.699-0.972-7.016c-0.34-1.82-0.567-3.66-0.934-5.48
	c-0.527-2.645-1.105-5.279-1.743-7.898c-0.615-2.535-1.305-5.053-2.213-7.508c-0.257-0.689,0.025-1.23,0.693-1.338
	c1.413-0.23,2.799-0.615,4.249-0.637c0.586-0.008,1.168-0.146,1.751-0.238c0.5-0.078,0.993-0.211,1.493-0.256
	c3.03-0.268,6.018-0.797,9.029-1.197c0.92-0.119,1.842-0.209,2.766-0.301c0.675-0.068,1.127,0.285,1.413,0.85
	c0.188,0.373,0.322,0.777,0.448,1.176c0.119,0.373,0.4,0.541,0.731,0.611c0.326,0.066,0.67,0.1,1.001,0.08
	c1.264-0.076,2.547-0.068,3.781-0.307c1.655-0.322,3.33-0.471,4.984-0.828c2.061-0.441,4.127-0.852,6.158-1.4
	c0.245-0.066,0.497-0.09,0.749-0.119c0.367-0.037,0.671,0.115,0.872,0.404c0.593,0.838,0.897,1.82,1.182,2.781
	c0.794,2.666,1.48,5.365,1.665,8.16c0.044,0.672,0.2,1.336,0.271,2.006c0.085,0.838,0.159,1.68,0.188,2.521
	c0.03,0.789-0.188,1.102-0.867,1.35c-1.746,0.639-3.529,1.105-5.357,1.473c-1.491,0.293-2.985,0.494-4.498,0.645
	c-2.362,0.236-4.709,0.283-7.071-0.025c-1.716-0.227-1.894-0.018-1.876,1.713c0.004,0.252,0.004,0.508,0.049,0.754
	c0.066,0.354,0.292,0.617,0.63,0.723c1.134,0.332,2.287,0.563,3.477,0.629c4.687,0.277,9.255-0.314,13.708-1.805
	c0.482-0.166,0.969-0.305,1.451-0.449c0.507-0.152,0.851-0.01,1.015,0.422c0.09,0.236,0.182,0.475,0.264,0.713
	c0.559,1.689,0.726,3.463,1.079,5.193c0.1,0.49,0.054,1.01,0.054,1.514c0,0.414-0.328,0.857-0.697,0.961
	c-0.811,0.215-1.62,0.445-2.439,0.637c-1.969,0.467-3.926,1.014-5.917,1.344c-3.656,0.611-7.309,1.236-10.994,1.686
	C72.194,36.854,68.745,36.937,65.282,36.896"/>
<path fill="#FFFFFF" d="M58.108,57.862c-0.368-5.205-0.646-9.332-0.957-13.459c-0.063-0.838-0.255-1.666-0.371-2.504
	c-0.033-0.244,0.004-0.5,0.008-0.752c0.008-0.285,0.374-0.633,0.686-0.615c1.009,0.059,2.021,0.096,3.026,0.207
	c4.212,0.465,8.427,0.396,12.647,0.16c3.288-0.186,6.562-0.533,9.817-0.975c3.007-0.41,5.981-1.025,8.967-1.574
	c0.992-0.182,1.969-0.451,2.953-0.67c0.382-0.09,0.887,0.182,1.036,0.545c0.092,0.234,0.21,0.467,0.251,0.715
	c0.646,3.846,0.923,7.709,0.505,11.6c-0.07,0.67-0.215,1.33-0.349,1.99c-0.07,0.348-0.304,0.578-0.63,0.73
	c-1.543,0.727-3.196,1.084-4.853,1.387c-4.086,0.748-8.217,0.83-12.354,0.709c-0.253-0.008-0.505,0.033-0.757,0.055
	c-0.297,0.029-0.683,0.367-0.683,0.652c-0.003,0.668,0.012,1.338,0.045,2.006c0.012,0.271,0.393,0.627,0.69,0.646
	c0.756,0.063,1.516,0.158,2.269,0.137c3.797-0.119,7.586-0.297,11.346-0.93c1.49-0.25,3.01-0.338,4.501-0.625
	c0.278-0.051,0.69,0.275,0.767,0.557c0.023,0.082,0.075,0.156,0.085,0.236c0.431,3.197,0.435,6.396,0.053,9.596
	c-0.078,0.662-0.476,1.105-1.117,1.199c-2.253,0.322-4.5,0.695-6.759,1.004c-2.928,0.399-5.88,0.503-8.813,0.841
	c-1.253,0.141-2.525,0.189-3.789,0.23c-3.46,0.111-6.923,0.17-10.378-0.053c-2.106-0.137-4.201-0.367-6.304-0.566
	c-0.245-0.025-0.485-0.131-0.715-0.227c-0.408-0.173-0.723-0.462-0.753-0.927c-0.044-0.756-0.066-1.516-0.066-2.275
	C58.104,63.534,58.108,60.161,58.108,57.862"/>
<path fill="#FFFFFF" d="M361.547,155.684c0.043-0.36,0.109-0.776,0.148-1.19c0.096-1.104-0.039-2.166-0.469-3.222
	c-0.576-1.397-1.021-2.852-1.539-4.274c-0.049-0.127-0.199-0.25-0.33-0.31c-0.187-0.078-0.34,0.019-0.408,0.199
	c-0.588,1.67-1.125,3.355-1.779,5c-0.459,1.158-0.584,2.271-0.115,3.437c0.058,0.141-0.006,0.325-0.018,0.524
	c-0.23,0.06-0.463,0.172-0.699,0.172c-4.059,0.015-8.111,0.015-12.166,0.015c-0.164,0-0.326-0.062-0.492-0.089
	c-0.188-0.03-0.295-0.147-0.279-0.356c0.011-0.161,0.019-0.34,0.084-0.479c0.609-1.313,0.507-2.633,0.021-3.943
	c-0.493-1.346-1.008-2.682-1.526-4.016c-2.563-6.601-5.162-13.189-7.672-19.807c-0.74-1.962-1.769-3.628-3.515-4.814
	c-0.123-0.084-0.242-0.252-0.269-0.396c-0.025-0.143,0.037-0.415,0.121-0.446c0.313-0.101,0.65-0.17,0.978-0.174
	c3.715-0.017,7.435-0.017,11.147-0.017c0.254,0,0.504,0.049,0.754,0.074c0.322,0.038,0.517,0.415,0.4,0.766
	c-0.219,0.634-0.449,1.269-0.643,1.908c-0.174,0.58-0.182,1.172-0.014,1.754c0.297,1.049,0.573,2.115,0.93,3.146
	c1.742,5.018,3.508,10.021,5.273,15.03c0.247,0.709,0.532,1.408,0.788,2.076c0.158,0,0.244,0.029,0.289-0.004
	c0.13-0.101,0.302-0.197,0.354-0.338c1.259-3.035,2.505-6.076,3.742-9.119c0.093-0.229,0.125-0.485,0.203-0.813
	c-0.678-1.66-1.375-3.377-2.08-5.09c-1.094-2.652-2.19-5.305-3.285-7.955c-0.094-0.229-0.159-0.475-0.229-0.711
	c-0.047-0.156,0.209-0.557,0.367-0.594c0.164-0.033,0.323-0.115,0.485-0.115c2.279-0.016,4.562-0.033,6.841-0.021
	c0.846,0.004,1.213,0.301,1.479,1.114c0.18,0.562,0.301,1.14,0.48,1.699c0.123,0.373,0.299,0.736,0.711,1.049
	c0.41-1.104,0.785-2.129,1.178-3.145c0.162-0.43,0.52-0.693,0.967-0.697c2.449-0.016,4.896-0.008,7.342,0.008
	c0.427,0.004,0.681,0.513,0.515,0.949c-0.063,0.158-0.14,0.313-0.205,0.467c-0.783,1.863-1.563,3.73-2.358,5.592
	c-0.955,2.253-1.912,4.503-2.896,6.74c-0.289,0.656-0.367,1.31-0.115,1.965c1.148,2.984,2.313,5.968,3.472,8.939
	c0.211-0.049,0.438-0.033,0.481-0.117c0.276-0.516,0.545-1.047,0.765-1.592c1.938-4.85,3.871-9.703,5.803-14.557
	c0.371-0.938,0.678-1.908,1.096-2.826c0.646-1.422,0.523-2.779-0.146-4.141c-0.145-0.297-0.264-0.609-0.334-0.931
	c-0.026-0.106,0.107-0.301,0.219-0.383c0.128-0.096,0.31-0.149,0.468-0.149c4.14-0.021,8.274-0.033,12.412-0.041
	c0.088,0,0.182,0.002,0.245,0.047c0.132,0.086,0.298,0.174,0.353,0.307c0.058,0.127,0.058,0.363-0.024,0.451
	c-0.353,0.359-0.744,0.674-1.123,1.008c-1.154,1.021-2.027,2.221-2.607,3.674c-1.402,3.525-2.877,7.018-4.326,10.521
	c-1.709,4.127-3.418,8.254-5.133,12.383c-0.158,0.385-0.402,0.756-0.484,1.164c-0.471,2.307-0.924,1.803-0.008,4.152
	c0.082,0.215,0.012,0.489,0.012,0.735c-1.895,0.236-6.563,0.304-12.403,0.162c-0.328-0.008-0.658-0.086-0.984-0.156
	C361.723,155.871,361.672,155.789,361.547,155.684"/>
<path fill="#FFFFFF" d="M21.193,31.392c-2.867,0.016-5.477-0.074-8.08-0.34c-1.008-0.104-2.024-0.057-3.032-0.135
	c-1.095-0.076-2.18-0.225-3.267-0.336c-0.838-0.086-1.679-0.148-2.517-0.23c-0.586-0.059-1.187-0.064-1.75-0.207
	c-0.938-0.238-1.139-0.688-0.932-1.447c1.403-5.107,2.804-10.219,4.172-15.336C6.744,9.786,7.649,6.202,8.575,2.62
	c0.063-0.24,0.134-0.484,0.219-0.723c0.353-1.014,0.797-1.354,1.854-1.357c2.866-0.004,5.736,0.025,8.602,0.008
	c0.96-0.004,1.583,0.408,2.006,1.246c1.109,2.188,1.902,4.492,2.688,6.807c0.812,2.395,1.305,4.873,1.891,7.326
	c0.06,0.24,0.134,0.484,0.252,0.697c0.078,0.133,0.241,0.26,0.386,0.293c0.241,0.053,0.501,0.061,0.741,0.02
	c0.834-0.131,1.662-0.289,2.492-0.436c0.994-0.17,1.991-0.326,2.985-0.508c0.374-0.07,0.708-0.584,0.649-0.971
	c-0.268-1.75-0.709-3.455-1.306-5.125c-0.167-0.475-0.326-0.951-0.482-1.434c-0.081-0.246,0.204-0.775,0.445-0.809
	c1.498-0.229,2.977-0.594,4.509-0.602c1.435-0.002,2.852-0.162,4.278-0.363c1.495-0.211,3.022-0.211,4.539-0.273
	c0.545-0.02,0.934,0.26,1.204,0.76c0.728,1.342,1.225,2.777,1.681,4.221c0.863,2.732,1.449,5.531,1.972,8.346
	c0.219,1.16,0.423,2.324,0.578,3.496c0.134,1,0.208,2.01,0.271,3.018c0.023,0.352-0.192,0.654-0.504,0.816
	c-0.449,0.23-0.905,0.463-1.383,0.604c-2.914,0.838-5.851,1.555-8.824,2.154c-2.073,0.414-4.198,0.396-6.237,0.955
	c-0.159,0.043-0.333,0.049-0.5,0.055C29.364,30.958,25.172,31.558,21.193,31.392"/>
<path fill="#FFFFFF" d="M242.453,130.055c0.719,0.244,1.441,0.471,2.15,0.73c1.274,0.463,2.485,1.057,3.565,1.891
	c0.334,0.256,0.672,0.516,0.972,0.813c1.678,1.664,2.418,3.587,1.129,6.48c-0.482,1.084-1.195,2.033-2.019,2.9
	c-1.465,1.541-3.168,2.787-4.944,3.93c-2.994,1.924-6.203,3.428-9.519,4.689c-3.552,1.35-7.193,2.4-10.897,3.219
	c-1.64,0.354-3.271,0.852-4.978,0.867c-0.326,0.006-0.652,0.148-0.981,0.223c-0.408,0.082-0.818,0.229-1.228,0.236
	c-1.861,0.014-3.72,0-5.576-0.014c-0.358-0.009-0.541-0.394-0.351-0.728c0.216-0.365,0.431-0.722,0.656-1.076
	c0.238-0.371,0.318-0.778,0.334-1.209c0.017-0.586,0.025-1.18,0.025-1.771c0.016-8.279,0.025-16.56,0.039-24.838
	c0.002-0.422-0.02-0.845,0-1.269c0.043-0.961-0.209-1.828-0.787-2.61c-0.141-0.191-0.193-0.459-0.277-0.691
	c-0.057-0.146,0.232-0.533,0.4-0.547c0.418-0.025,0.84-0.066,1.26-0.068c7.436-0.006,14.869,0.006,22.303-0.008
	c2.539-0.006,5.062,0.273,7.582,0.516c1.42,0.137,2.808,0.607,4.021,1.434c0.879,0.604,1.457,1.396,1.467,2.519
	c0.009,0.797-0.231,1.496-0.795,2.065c-0.664,0.666-1.418,1.189-2.313,1.517c-0.385,0.142-0.739,0.375-1.104,0.578
	C242.529,129.869,242.504,129.967,242.453,130.055 M219.973,140.777h0.037c0,2.199-0.004,4.395,0,6.59
	c0.004,0.422,0.025,0.846,0.053,1.264c0.015,0.246,0.443,0.662,0.689,0.662c0.332-0.016,0.682,0,1-0.074
	c1.639-0.406,3.293-0.766,4.895-1.277c3.459-1.112,6.808-2.483,9.863-4.51c1.063-0.705,2.023-1.514,2.877-2.457
	c0.336-0.371,0.658-0.783,0.885-1.227c0.854-1.656,0.75-3.453-0.922-4.766c-0.656-0.512-1.406-0.943-2.172-1.271
	c-1.951-0.846-4.006-1.316-6.145-1.328c-3.125-0.018-6.252-0.01-9.377-0.006c-0.334,0.002-0.668,0.059-1.002,0.102
	c-0.293,0.041-0.607,0.396-0.633,0.701c-0.023,0.252-0.049,0.506-0.049,0.758C219.969,136.217,219.973,138.498,219.973,140.777
	 M227.605,128.23v-0.008c2.362,0,4.723-0.011,7.08,0.004c0.871,0.008,1.66-0.234,2.41-0.642c0.145-0.082,0.266-0.201,0.396-0.306
	c0.358-0.284,0.274-1.086-0.136-1.334c-0.809-0.497-1.682-0.754-2.631-0.754c-4.883-0.002-9.771-0.002-14.658-0.002
	c-0.166,0.002-0.332,0.039-0.5,0.062c-0.309,0.033-0.61,0.347-0.623,0.685c-0.014,0.504-0.021,1.008-0.004,1.514
	c0.013,0.443,0.33,0.723,0.836,0.748c0.502,0.023,1.009,0.029,1.513,0.033C223.395,128.234,225.502,128.23,227.605,128.23"/>
<path fill="#FFFFFF" d="M82.92,121.875c0.022,0.07,0.077,0.156,0.066,0.234c-0.181,1.535,0.604,2.524,1.788,3.363
	c3.511,2.483,6.992,5.016,10.497,7.516c1.025,0.729,2.084,1.42,3.129,2.127c0.162,0.111,0.562-0.107,0.585-0.305
	c0.018-0.166,0.052-0.33,0.056-0.502c0.011-2.699,0.029-5.404,0.026-8.104c0-0.504-0.1-1.009-0.107-1.513
	c-0.011-0.985-0.587-1.729-0.995-2.555c-0.044-0.086,0.086-0.318,0.197-0.408c0.123-0.092,0.316-0.137,0.474-0.137
	c3.294-0.004,6.586,0,9.878,0.004c0.081,0,0.168,0.025,0.248,0.033c0.356,0.037,0.582,0.43,0.353,0.738
	c-0.753,1.004-0.904,2.152-0.909,3.352c-0.003,0.51-0.011,1.012-0.008,1.521c0.02,7.854,0.041,15.702,0.061,23.557
	c0.003,0.416,0.014,0.84,0.008,1.263c-0.013,1.03,0.125,2.018,0.781,2.868c0.216,0.273,0.283,0.609,0.116,1.003
	c-0.297,0.036-0.628,0.11-0.958,0.11c-3.122,0.006-6.247,0.006-9.369,0c-0.249,0-0.511-0.029-0.742-0.11
	c-0.107-0.046-0.166-0.238-0.215-0.38c-0.025-0.059,0-0.17,0.044-0.229c0.787-0.973,0.984-2.123,0.999-3.313
	c0.029-2.536,0.059-5.065,0.073-7.6c0.004-0.539-0.26-0.972-0.662-1.313c-0.195-0.164-0.41-0.297-0.618-0.445
	c-5.416-3.881-10.833-7.768-16.254-11.646c-0.273-0.196-0.563-0.367-0.849-0.545c-0.208-0.129-0.57,0.024-0.582,0.256
	c-0.033,0.591-0.078,1.177-0.078,1.767c0,6.16,0.033,12.321,0.004,18.487c-0.008,1.55,0.111,3.019,1.067,4.314
	c0.212,0.29-0.043,0.729-0.388,0.729c-3.545,0.009-7.09,0-10.634-0.008c-0.356,0-0.56-0.407-0.331-0.713
	c0.853-1.127,1.136-2.424,1.165-3.797c0.011-0.593,0.008-1.187,0.011-1.771c0.011-7.263,0.023-14.525,0.037-21.785
	c0-0.588,0-1.179-0.003-1.773c-0.004-1.281-0.193-2.506-0.924-3.621c-0.352-0.531-0.052-0.953,0.634-0.961
	c2.024-0.018,4.049-0.021,6.077-0.025c1.687-0.004,3.375,0,5.065,0.008C82.149,121.568,82.576,121.557,82.92,121.875"/>
<path fill="#FFFFFF" d="M269.156,139.92c-1.328,0.906-2.723,1.852-4.109,2.801c-0.838,0.574-1.668,1.152-2.494,1.738
	c-0.434,0.309-0.707,0.721-0.707,1.271c0,2.283,0,4.563,0.014,6.84c0.005,0.602,0.154,1.164,0.486,1.684
	c0.223,0.355,0.381,0.748,0.563,1.127c0.077,0.162-0.152,0.557-0.322,0.572c-0.252,0.027-0.5,0.088-0.754,0.088
	c-3.125,0.006-6.246,0.006-9.371,0c-0.254,0-0.517-0.021-0.75-0.104c-0.106-0.039-0.215-0.238-0.219-0.379
	c-0.009-0.148,0.065-0.334,0.164-0.451c0.771-0.98,1-2.129,1.09-3.314c0.043-0.588,0.028-1.18,0.028-1.773
	c0.015-7.604,0.025-15.203,0.037-22.809c0-0.252-0.012-0.508,0-0.76c0.06-1.473-0.235-2.844-1.063-4.09
	c-0.196-0.293,0.031-0.746,0.347-0.775c0.252-0.021,0.5-0.051,0.752-0.055c0.594-0.008,1.184-0.004,1.774-0.004
	c7.771-0.004,15.543-0.012,23.313,0c1.771,0.004,3.545,0.084,5.322,0.115c1.125,0.021,2.158,0.401,3.143,0.885
	c1.943,0.951,2.33,2.731,0.896,4.354c-0.723,0.816-1.565,1.553-2.442,2.195c-2.117,1.539-4.287,3.008-6.438,4.496
	c-0.347,0.242-0.709,0.465-1.054,0.705c-0.952,0.672-1.012,0.924-0.444,1.836c0.09,0.145,0.172,0.289,0.267,0.43
	c3.082,4.543,6.168,9.08,9.243,13.625c1.056,1.557,2.365,2.855,3.82,4.025c0.455,0.373,0.889,0.771,1.323,1.164
	c0.15,0.143,0.138,0.305-0.012,0.453c-0.055,0.053-0.104,0.143-0.168,0.155c-0.248,0.037-0.5,0.074-0.754,0.074
	c-3.717,0.006-7.434,0.006-11.146,0c-0.253,0-0.507-0.037-0.759-0.054c-0.248-0.021-0.45-0.28-0.389-0.518
	c0.092-0.32,0.232-0.639,0.297-0.965c0.219-1.127,0.049-2.172-0.688-3.1c-0.574-0.734-1.14-1.469-1.685-2.225
	c-1.926-2.673-3.834-5.355-5.766-8.021C270.168,140.697,269.92,140.117,269.156,139.92 M267.826,125.283v-0.004
	c-1.852,0-3.701-0.008-5.555,0.004c-0.332,0.002-0.681,0.025-0.988,0.137c-0.207,0.074-0.438,0.285-0.514,0.488
	c-0.119,0.305-0.156,0.654-0.156,0.986c0,3.362,0.012,6.729,0.027,10.098c0,0.248,0.061,0.498,0.096,0.746
	c0.029,0.219,0.389,0.436,0.565,0.354c0.224-0.109,0.464-0.191,0.673-0.328c4.121-2.76,8.25-5.518,12.36-8.295
	c0.485-0.326,0.94-0.705,1.365-1.115c0.297-0.289,0.536-0.646,0.764-0.994c0.399-0.623,0.091-1.401-0.604-1.616
	c-1.055-0.322-2.135-0.451-3.236-0.459C271.025,125.275,269.428,125.283,267.826,125.283"/>
<path fill="#FFFFFF" d="M112.987,138.82v-10.125c0-0.508-0.008-1.014,0.007-1.521c0.049-1.781,0.011-3.545-1.045-5.102
	c-0.108-0.156,0.151-0.59,0.33-0.59c0.08,0,0.162-0.037,0.244-0.033c3.378,0.148,6.696,0.656,10,1.398
	c3.789,0.852,7.482,1.971,11.097,3.368c4.104,1.589,8.001,3.563,11.583,6.148c1.716,1.237,3.289,2.643,4.668,4.247
	c0.708,0.828,1.349,1.732,1.906,2.671c0.876,1.465,1.409,3.057,1.301,4.805c-0.015,0.254-0.01,0.506,0,0.756
	c0.07,2.423-0.907,4.419-2.496,6.162c-0.969,1.076-2.143,1.897-3.425,2.565c-1.728,0.896-3.54,1.527-5.432,2.003
	c-1.32,0.331-2.622,0.487-3.975,0.487c-7.763-0.021-15.524-0.016-23.288-0.016c-0.757,0-1.516-0.021-2.272-0.035
	c-0.223-0.008-0.523-0.371-0.413-0.506c1.061-1.244,1.169-2.742,1.164-4.285c-0.006-4.133-0.003-8.266-0.003-12.4h0.049V138.82z
	 M129.011,151.332v-0.029c1.602,0,3.204-0.031,4.806,0.008c1.713,0.035,3.348-0.379,4.968-0.838
	c0.794-0.229,1.561-0.631,2.273-1.068c2.051-1.266,2.959-3.133,2.813-5.549c-0.121-2.043-1.067-3.698-2.328-5.215
	c-0.92-1.104-1.999-2.045-3.14-2.916c-3.314-2.524-6.975-4.397-10.897-5.766c-1.51-0.527-3.078-0.854-4.635-1.189
	c-0.348-0.074-0.727,0.162-0.748,0.461c-0.026,0.338-0.064,0.672-0.064,1.011c0.008,6.491,0.018,12.979,0.034,19.475
	c0.004,0.334,0.051,0.668,0.096,1.002c0.037,0.289,0.29,0.431,0.516,0.48c0.408,0.09,0.83,0.127,1.248,0.127
	C125.64,151.338,127.329,151.332,129.011,151.332"/>
<path fill="#FFFFFF" d="M27.014,155.945c-0.048-0.156-0.181-0.357-0.126-0.453c0.208-0.365,0.46-0.697,0.727-1.016
	c0.79-0.943,1.205-2.011,1.198-3.24c-0.003-1.019,0.004-2.025,0.004-3.039c0.003-0.424,0.018-0.846,0.003-1.271
	c-0.118-3.229,0.909-6.137,2.54-8.854c1.754-2.926,3.986-5.434,6.648-7.564c3.864-3.098,8.224-5.248,12.874-6.867
	c2.31-0.805,4.693-1.328,7.074-1.869c0.248-0.055,0.501-0.082,0.752-0.1c1.684-0.137,3.363-0.275,5.047-0.391
	c0.837-0.059,1.679-0.121,2.502,0.164c0.312,0.106,0.564,0.533,0.378,0.797c-0.96,1.391-1.123,2.951-1.115,4.586
	c0.04,8.014,0.044,16.031,0.07,24.043c0.003,0.676,0.037,1.35,0.104,2.018c0.082,0.779,0.493,1.424,0.867,2.092
	c0.338,0.595,0.134,1.039-0.463,1.039c-3.455,0.008-6.915,0-10.37-0.016c-0.367,0-0.575-0.379-0.405-0.697
	c0.038-0.072,0.056-0.164,0.108-0.223c0.883-1.121,1.134-2.426,1.123-3.805c-0.007-1.603-0.011-3.205-0.026-4.812
	c0-0.297-0.337-0.663-0.615-0.696c-0.334-0.043-0.671-0.101-1.005-0.101c-5.232,0-10.459,0.009-15.691,0.022
	c-0.33,0.002-0.683,0.035-0.986,0.15c-0.208,0.078-0.486,0.318-0.497,0.506c-0.082,1.258-0.123,2.519-0.13,3.779
	c-0.004,0.504,0.133,1.008,0.148,1.512c0.037,1.283,0.294,2.5,0.972,3.613c0.203,0.332,0,0.711-0.334,0.74
	C37.029,156.092,28.679,156.055,27.014,155.945 M47.778,140.881v0.008c2.354,0,4.709,0.008,7.063-0.008
	c0.416,0,0.834-0.061,1.242-0.146c0.133-0.026,0.29-0.196,0.341-0.338c0.086-0.229,0.13-0.489,0.13-0.733
	c0.011-3.787,0.015-7.567,0.019-11.354c0-0.168-0.022-0.334-0.034-0.504c-0.029-0.381-0.507-0.688-0.93-0.594
	c-0.241,0.057-0.49,0.107-0.723,0.197c-5.32,1.984-9.77,5.197-13.367,9.578c-0.741,0.897-1.33,1.934-1.953,2.928
	c-0.327,0.512-0.027,0.934,0.641,0.949c0.589,0.016,1.179,0.016,1.768,0.018H47.778L47.778,140.881z"/>
<path fill="#FFFFFF" d="M180.819,155.953c-0.041-0.209-0.15-0.432-0.084-0.514c1.029-1.363,1.197-2.912,1.121-4.553
	c-0.068-1.351-0.006-2.701-0.021-4.052c-0.01-0.875-0.311-1.146-1.248-1.188c-0.424-0.018-0.846-0.018-1.268-0.018
	c-4.645,0-9.285-0.002-13.928,0.004c-0.586,0-1.177,0.027-1.763,0.104c-0.225,0.033-0.469,0.201-0.52,0.486
	c-0.045,0.248-0.104,0.496-0.113,0.744c-0.021,0.758-0.027,1.518-0.027,2.279c0,2.113-0.039,4.236,1.123,6.133
	c0.092,0.156-0.156,0.549-0.33,0.578c-0.082,0.008-0.164,0.061-0.244,0.061c-3.545,0.008-7.09,0.008-10.635,0
	c-0.144,0-0.295-0.104-0.441-0.172c-0.144-0.059-0.1-0.459,0.082-0.695c0.103-0.125,0.222-0.254,0.333-0.379
	c0.164-0.192,0.341-0.379,0.479-0.586c0.47-0.713,0.805-1.469,0.793-2.352c-0.018-1.438,0.026-2.871,0.007-4.307
	c-0.051-3.385,0.923-6.484,2.618-9.377c1.376-2.349,3.127-4.4,5.116-6.244c2.117-1.961,4.46-3.604,6.998-4.973
	c4.107-2.209,8.439-3.777,13-4.783c2.742-0.609,5.523-0.615,8.295-0.84c0.488-0.039,0.992,0.123,1.488,0.203
	c0.197,0.028,0.4,0.428,0.326,0.604c-0.066,0.148-0.092,0.326-0.184,0.457c-0.602,0.871-0.779,1.861-0.82,2.885
	c-0.025,0.676-0.025,1.35-0.021,2.023c0.014,7.598,0.029,15.194,0.051,22.787c0,0.676,0.004,1.356,0.049,2.022
	c0.055,0.942,0.311,1.804,0.83,2.619c0.564,0.883,0.385,1.127-0.709,1.127c-3.121,0.014-6.242,0.006-9.369,0
	C181.471,156.041,181.137,155.98,180.819,155.953 M173.112,140.922h6.064c0.59-0.002,1.18-0.002,1.77-0.025
	c0.529-0.018,0.869-0.403,0.896-0.998c0.004-0.084,0.014-0.17,0.014-0.252c0.002-3.793,0.01-7.582,0.006-11.369
	c0-0.25-0.045-0.506-0.129-0.735c-0.051-0.125-0.225-0.272-0.348-0.281c-0.328-0.022-0.695-0.057-0.98,0.066
	c-1.396,0.592-2.809,1.157-4.139,1.871c-4.143,2.223-7.656,5.186-10.359,9.059c-0.43,0.615-0.76,1.304-1.123,1.961
	c-0.115,0.205,0.055,0.589,0.252,0.605c0.418,0.038,0.838,0.092,1.254,0.098C168.567,140.926,170.838,140.922,173.112,140.922"/>
<path fill="#FFFFFF" d="M312.701,156.047c-5.66,0-11.318,0.008-16.975,0c-0.672-0.006-1.345-0.059-2.015-0.125
	c-0.086-0.016-0.168-0.238-0.224-0.379c-0.024-0.057-0.004-0.178,0.041-0.229c0.886-1.135,0.979-2.455,0.979-3.834
	c0.005-8.359,0.033-16.722,0.056-25.078c0-0.256-0.008-0.508-0.008-0.76c0.02-1.205-0.146-2.353-0.951-3.324
	c-0.215-0.26,0.047-0.713,0.383-0.732c0.502-0.029,1.012-0.066,1.516-0.066c10.133-0.008,20.266-0.016,30.398-0.016
	c2.414,0.006,2.422,0.016,2.43,2.348c0,0.926-0.037,1.854-0.066,2.785c-0.012,0.238-0.481,0.611-0.729,0.582
	c-0.418-0.053-0.865-0.037-1.244-0.189c-0.961-0.393-1.963-0.479-2.977-0.52c-1.519-0.066-3.033-0.162-4.556-0.174
	c-4.475-0.025-8.948-0.018-13.426-0.016c-0.41,0-0.854-0.066-1.205,0.244c-0.123,0.106-0.307,0.297-0.276,0.391
	c0.065,0.215,0.221,0.535,0.385,0.563c0.574,0.103,1.17,0.131,1.752,0.131c5.574,0.009,11.146,0,16.721,0.004
	c0.756,0,1.518,0.025,2.273,0.063c0.402,0.021,0.771,0.425,0.807,0.839c0.016,0.168,0.035,0.338,0.035,0.504
	c-0.02,3.608,0.48,3.461-3.35,3.455c-5.148-0.007-10.299-0.007-15.449-0.011c-0.676,0-1.354-0.012-2.027,0.009
	c-0.939,0.021-1.242,0.313-1.266,1.172c-0.008,0.338-0.008,0.674-0.004,1.012c0.026,4.981,0.049,9.963,0.078,14.947
	c0.004,0.334-0.025,0.688,0.069,1.002c0.063,0.192,0.31,0.414,0.509,0.473c0.399,0.105,0.832,0.135,1.25,0.135
	c5.909,0,11.819,0.014,17.729-0.021c2.621-0.008,5.221-0.26,7.723-1.135c0.486-0.17,1.089,0.244,1.099,0.756
	c0.031,1.433,0.039,2.863,0.018,4.303c-0.002,0.541-0.402,0.859-1.014,0.875c-0.676,0.021-1.353,0.021-2.029,0.021h-16.461V156.047z
	"/>
<path fill="#FFFFFF" d="M18.227,121.455c3.378,0,6.756-0.018,10.134,0.008c1.854,0.014,3.711,0.127,5.569,0.143
	c1.219,0.015,2.314,0.422,3.378,0.938c0.3,0.146,0.578,0.354,0.826,0.578c0.801,0.709,1.046,1.778,0.664,2.772
	c-0.401,1.049-1.046,1.929-1.876,2.666c-0.694,0.615-1.416,1.201-2.151,1.771c-2.869,2.221-5.751,4.426-8.631,6.64
	c-3.678,2.825-7.36,5.657-11.045,8.479c-0.398,0.305-0.835,0.549-1.262,0.813c-0.155,0.096-0.57-0.125-0.607-0.313
	c-0.034-0.162-0.1-0.326-0.1-0.492c-0.008-1.938-0.004-3.881-0.012-5.824c-0.003-0.647,0.304-1.112,0.809-1.485
	c1.557-1.162,3.107-2.33,4.66-3.494c2.292-1.725,4.59-3.445,6.874-5.18c0.605-0.459,1.195-0.945,1.754-1.455
	c0.242-0.222,0.408-0.533,0.59-0.814c0.212-0.328-0.023-0.959-0.382-1.045c-0.245-0.055-0.489-0.135-0.742-0.148
	c-0.67-0.049-1.346-0.094-2.02-0.094c-3.801-0.002-7.601,0-11.402,0.02c-0.5,0.004-1.001,0.082-1.498,0.17
	c-0.13,0.025-0.296,0.216-0.322,0.354c-0.06,0.328-0.06,0.67-0.06,1.008c0.016,7.939,0.038,15.873,0.045,23.813
	c0,1.447,0.037,2.871,0.987,4.086c0.137,0.178-0.056,0.58-0.253,0.594c-0.501,0.029-1.005,0.082-1.509,0.088
	c-2.28,0.008-4.561,0.008-6.837,0c-0.845,0-1.691-0.014-2.533-0.027c-0.352-0.008-0.589-0.444-0.362-0.729
	c0.889-1.127,1.045-2.402,1.042-3.797c-0.034-8.443-0.004-16.887,0.003-25.332c0-0.254-0.015-0.504-0.003-0.762
	c0.043-1.037-0.101-2.016-0.85-2.824c-0.107-0.115-0.133-0.301-0.2-0.457c-0.059-0.135,0.207-0.574,0.37-0.584
	c0.586-0.045,1.169-0.119,1.755-0.119c5.064-0.012,10.133-0.008,15.197-0.008V121.455L18.227,121.455z"/>
<path fill="#FFFFFF" d="M72.253,85.191c-0.07-1.262-0.148-2.437-0.196-3.615c-0.09-2.191-0.175-4.383-0.235-6.574
	c-0.022-0.816,0.398-1.064,1.072-1.121c1.428-0.117,2.859-0.201,4.29-0.316c1.761-0.139,3.526-0.285,5.291-0.432
	c0.167-0.016,0.334-0.051,0.501-0.059c2.613-0.09,5.213-0.338,7.812-0.615c1.672-0.182,3.363-0.207,5.035-0.467
	c0.727-0.115,1.199,0.207,1.283,0.867c0.2,1.59,0.485,3.178,0.526,4.771c0.079,3.117,0.079,6.244-0.021,9.361
	c-0.056,1.848-0.353,3.688-0.568,5.526c-0.052,0.449-0.37,0.752-0.813,0.873c-0.321,0.094-0.651,0.154-0.985,0.211
	c-4.642,0.826-9.288,1.617-13.975,2.172c-1.591,0.195-3.174,0.416-4.772,0.523c-1.005,0.07-1.998,0.297-3.003,0.42
	c-0.326,0.041-0.668-0.016-1.005-0.018c-0.163-0.006-0.523-0.316-0.537-0.473c-0.033-0.332-0.094-0.67-0.082-1.004
	c0.041-1.603,0.092-3.205,0.155-4.808C72.097,88.65,72.179,86.881,72.253,85.191"/>
<path fill="#FFFFFF" d="M-0.557,83.732v-3.295c0-1.013-0.004-2.015,0.301-3.008c0.17-0.551,0.152-1.166,0.192-1.756
	c0.045-0.672,0.026-1.354,0.104-2.021c0.171-1.445,0.467-1.857,2.135-1.584c2.241,0.367,4.461,0.939,6.76,0.924
	c4.001,0.672,8.053,0.814,12.08,1.246c0.33,0.037,0.678,0.082,0.975,0.215c0.197,0.09,0.319,0.35,0.46,0.541
	c0.044,0.064,0.055,0.166,0.04,0.246c-0.626,3.33-0.715,6.713-1.064,10.068c-0.162,1.592-0.129,3.207-0.148,4.811
	c-0.022,1.771,0,3.547-0.014,5.32c-0.004,0.418-0.045,0.846-0.153,1.248c-0.055,0.221-0.256,0.432-0.548,0.449
	c-0.082,0.004-0.171,0.045-0.249,0.03c-1.668-0.291-3.359-0.315-5.042-0.412c-0.505-0.028-1.001-0.147-1.498-0.233
	c-0.334-0.058-0.664-0.191-0.994-0.183c-2.213,0.058-4.35-0.557-6.529-0.764c-1.676-0.162-3.333-0.517-4.998-0.806
	c-0.549-0.094-0.913-0.475-1.039-0.992c-0.137-0.567-0.211-1.157-0.252-1.743c-0.066-0.923-0.066-1.843-0.374-2.748
	c-0.156-0.463-0.134-0.996-0.137-1.502C-0.568,86.438-0.557,85.084-0.557,83.732"/>
<path fill="#FFFFFF" d="M47.981,86.979c0.037-2.051,0.097-4.668,0.13-7.285c0.018-1.36,0.226-2.692,0.49-4.018
	c0.081-0.406,0.452-0.707,0.904-0.752c0.167-0.02,0.334-0.033,0.505-0.041c5.231-0.195,10.463-0.396,15.698-0.582
	c3.033-0.111,2.97-0.07,3.089,2.795c0.033,0.846,0.074,1.691,0.163,2.529c0.578,5.488,0.345,10.965-0.137,16.441
	c-0.059,0.668-0.464,1.061-1.131,1.145c-0.253,0.031-0.504,0.053-0.756,0.072c-0.338,0.025-0.675,0.041-1.013,0.061
	c-4.045,0.242-8.09,0.502-12.139,0.713c-1.517,0.082-3.04,0.064-4.557,0.06c-0.5,0-0.994-0.478-1.038-0.945
	c-0.044-0.502-0.074-1.012-0.082-1.517C48.063,92.951,48.029,90.248,47.981,86.979"/>
<path fill="#FFFFFF" d="M35.999,98.197c-4.201-0.258-7.312-0.447-10.426-0.648c-0.253-0.016-0.497-0.074-0.745-0.121
	c-0.245-0.043-0.646-0.453-0.664-0.691c-0.034-0.418-0.086-0.84-0.075-1.26c0.097-3.961,0.179-7.924,0.324-11.883
	c0.044-1.262,0.262-2.514,0.407-3.771c0.112-1.005,0.204-2.014,0.352-3.012c0.089-0.578,0.248-1.145,0.426-1.705
	c0.104-0.334,0.386-0.568,0.746-0.588c0.504-0.031,1.012-0.041,1.512,0.002c4.966,0.426,9.941,0.393,14.917,0.396
	c0.504,0.004,1.012,0,1.516,0.02c1.024,0.033,1.275,0.352,1.176,1.453c-0.03,0.334-0.056,0.674-0.119,1.004
	c-0.274,1.414-0.315,2.85-0.319,4.285c-0.007,3.287-0.029,6.576,0.015,9.861c0.022,1.516,0.189,3.025,0.286,4.541
	c0.025,0.418,0.044,0.838,0.059,1.264c0.011,0.217-0.401,0.705-0.619,0.73c-0.419,0.049-0.839,0.115-1.254,0.119
	C40.647,98.205,37.777,98.197,35.999,98.197"/>
</svg>
